<svg width="1570" height="635" viewBox="0 0 1570 635" fill="none" xmlns="http://www.w3.org/2000/svg">
<path fill-rule="evenodd" clip-rule="evenodd" d="M557.837 66.8101C557.015 70.8452 555.353 73.2105 552.814 73.953C549.328 74.9727 549.269 75.2297 552.094 77.1347C553.785 78.2737 555.169 80.0527 555.169 81.0875C555.169 82.1223 551.684 84.6606 547.423 86.7285C540.668 90.0077 540.209 90.5637 543.826 91.0845C546.108 91.412 550.088 92.6921 552.67 93.9268C557.334 96.156 557.339 96.1846 553.514 98.0728C551.394 99.1177 548.644 99.8534 547.403 99.7056C546.16 99.5578 544.121 99.5259 542.867 99.6367C541.616 99.7459 540.589 100.641 540.589 101.627C540.589 102.613 542.091 102.981 543.928 102.444C545.996 101.839 548.531 102.755 550.589 104.851C552.417 106.712 553.169 108.322 552.262 108.428C551.354 108.535 549.793 108.797 548.79 109.012C547.788 109.227 545.525 109.518 543.76 109.659C541.996 109.798 539.15 111.426 537.433 113.274C535.716 115.122 533.059 116.646 531.529 116.659C529.996 116.674 527.514 117.462 526.01 118.409C524.057 119.642 527.299 120.007 537.382 119.688C548.748 119.327 552.098 119.802 554.629 122.137C557.59 124.865 557.59 125.033 554.647 125.033C552.929 125.033 551.524 123.899 551.524 122.513C551.524 121.127 550.616 119.994 549.506 119.994C548.397 119.994 547.935 121.065 548.48 122.374C549.025 123.684 548.225 125.196 546.704 125.734C545.182 126.273 542.632 126.713 541.04 126.713C539.447 126.713 536.58 128.017 534.67 129.609C532.761 131.202 528.596 133.281 525.416 134.229C522.234 135.176 519.632 136.94 519.632 138.148C519.632 139.356 517.582 141.819 515.076 143.619L510.52 146.895L517.81 146.578C521.819 146.403 527.035 145.482 529.4 144.532C532.879 143.134 534.173 143.403 536.183 145.936C538.43 148.77 538.776 148.804 539.822 146.289C540.458 144.762 542.846 143.512 545.127 143.512C547.744 143.512 549.628 144.753 550.23 146.872C550.937 149.363 550.285 150.231 547.708 150.231C545.798 150.231 543.837 150.277 543.352 150.331C542.867 150.386 536.513 151.947 529.229 153.801C521.947 155.654 512.044 159.496 507.225 162.338C502.405 165.181 499.159 168.149 500.01 168.934C500.862 169.718 505.37 171.017 510.03 171.82C514.69 172.623 519.167 172.715 519.978 172.024C520.791 171.336 523.095 171.388 525.099 172.142C528.339 173.362 528.378 173.526 525.447 173.632C523.302 173.708 522.639 174.477 523.548 175.834C524.317 176.98 524.83 183.973 524.687 191.373C524.543 198.773 524.028 205.961 523.541 207.347C523.053 208.733 522.244 211.001 521.742 212.387C521.176 213.953 520.777 213.474 520.687 211.127C520.572 208.124 519.477 207.347 515.359 207.347C512.474 207.347 508.698 205.844 506.85 203.961C503.628 200.68 503.633 200.499 507.023 198.135C509.778 196.211 509.941 195.639 507.787 195.429C506.283 195.282 503.413 194.995 501.408 194.79C499.404 194.584 496.943 194.29 495.941 194.137C494.939 193.982 495.325 193.154 496.799 192.294C498.274 191.434 498.881 190.179 498.148 189.502C497.414 188.827 495.757 189.606 494.465 191.236C492.244 194.036 491.546 194.046 481.727 191.414C473.724 189.27 471.339 187.886 471.339 185.39C471.339 183.236 472.6 182.149 475.099 182.149C478.244 182.149 478.765 181.255 478.288 176.69C477.768 171.724 477.14 171.208 471.339 170.993C466.573 170.817 466.227 170.951 469.972 171.526C472.729 171.947 474.982 172.809 474.978 173.441C474.975 174.072 472.112 174.647 468.616 174.716C465.119 174.785 461.66 175.393 460.93 176.066C460.197 176.74 460.693 177.916 462.03 178.677C464.048 179.826 464.038 180.217 461.977 180.973C460.494 181.518 461.064 181.937 463.399 182.016C465.547 182.089 467.753 183.228 468.303 184.546C468.851 185.865 468.263 187.736 466.996 188.706C465.372 189.947 464.059 189.885 462.548 188.492C460.906 186.979 460.405 187.392 460.405 190.265C460.405 192.328 458.97 194.515 457.215 195.126C455.461 195.739 453.029 197.038 451.813 198.014C450.593 198.99 448.366 200.739 446.859 201.903C445.354 203.065 441.02 204.69 437.23 205.513C433 206.432 431.745 207.168 433.981 207.418C435.985 207.643 440.993 207.986 445.112 208.181C449.228 208.374 453.532 209.068 454.679 209.719C455.823 210.371 456.76 213.506 456.76 216.686C456.76 219.866 457.529 222.466 458.469 222.466C459.41 222.466 460.026 219.036 459.836 214.845C459.534 208.098 459.911 207.279 463.138 207.705C465.143 207.971 466.885 209.133 467.011 210.287C467.137 211.443 467.341 213.143 467.466 214.067C467.592 214.991 468.494 215.747 469.471 215.747C470.594 215.747 470.637 214.263 469.588 211.72C468.675 209.504 468.332 207.319 468.828 206.864C469.322 206.407 471.321 206.417 473.267 206.885C475.213 207.356 476.806 209.118 476.806 210.805C476.806 212.49 476.041 214.305 475.104 214.838C474.167 215.372 473.865 218.44 474.432 221.657C475.066 225.258 474.718 227.506 473.526 227.506C472.463 227.506 471.237 225.806 470.803 223.726L470.012 219.947L469.764 223.726C469.595 226.31 468.363 227.506 465.872 227.506C462.597 227.506 462.227 228.626 462.227 238.524C462.227 245.876 462.872 249.175 464.164 248.439C465.229 247.833 470.151 247.221 475.1 247.08C480.05 246.941 484.101 247.203 484.101 247.665C484.103 248.127 486.488 248.657 489.404 248.846C492.725 249.059 495.103 248.234 495.766 246.638C496.349 245.239 497.658 244.565 498.675 245.145C499.692 245.724 501.042 244.953 501.674 243.431C502.596 241.216 503.14 241.11 504.395 242.904C505.669 244.721 506.25 244.737 507.482 242.979C508.317 241.788 511.393 240.654 514.316 240.46C517.239 240.265 520.053 239.594 520.569 238.968C521.083 238.343 526.619 238.259 532.87 238.781C540.575 239.426 544.234 240.449 544.234 241.96C544.234 243.184 542.649 244.968 540.71 245.926C538.771 246.882 533.44 247.665 528.864 247.665C524.288 247.665 520.543 246.932 520.543 246.037C520.543 245.143 519.244 244.869 517.657 245.432C515.333 246.254 515.244 246.729 517.201 247.873C518.539 248.654 518.812 249.405 517.81 249.539C516.807 249.675 518.858 250.354 522.366 251.05C525.965 251.762 511.492 252.346 489.138 252.393C466.517 252.441 449.083 251.804 448.483 250.91C447.905 250.048 449.484 249.344 451.989 249.344C454.495 249.344 457.008 248.652 457.575 247.807C458.141 246.962 457.575 245.889 456.315 245.42C454.497 244.745 454.495 244.543 456.304 244.438C457.558 244.365 458.582 243.171 458.582 241.785C458.582 240.399 458.251 239.265 457.844 239.265C457.436 239.265 453.542 240.948 449.188 243.006C444.833 245.064 440.884 246.994 440.412 247.297C439.94 247.599 440.76 248.55 442.234 249.41C443.962 250.416 435.679 250.982 418.946 250.999C397.09 251.021 392.977 251.424 392.977 253.544C392.977 254.93 392.199 256.064 391.246 256.064C390.294 256.064 385.708 258.433 381.053 261.329C374.808 265.214 373.233 266.966 375.039 268.021C376.386 268.808 379.79 269.463 382.606 269.478C386.006 269.495 387.289 270.155 386.426 271.443C385.66 272.584 385.921 272.928 387.06 272.28C388.124 271.673 390.916 271.853 393.265 272.678C397.473 274.16 397.455 274.197 392.066 275.342C389.059 275.981 382.908 277.615 378.398 278.976C373.888 280.337 366.507 281.874 361.996 282.393C357.486 282.912 353.453 283.626 353.036 283.98C352.618 284.333 355.899 284.741 360.325 284.887C364.752 285.032 369.375 285.119 370.596 285.082C371.819 285.044 373.31 286.436 373.909 288.177C374.573 290.105 376.689 291.342 379.324 291.342C381.704 291.342 384.157 292.097 384.776 293.021C385.396 293.945 387.856 294.701 390.243 294.701C392.631 294.701 395.104 295.477 395.74 296.427C396.376 297.374 397.859 298.041 399.036 297.907C400.214 297.772 402.701 297.752 404.562 297.863C406.599 297.982 407.572 298.96 407.006 300.319C406.322 301.96 407.339 302.352 410.727 301.755C413.736 301.224 414.962 301.567 414.19 302.721C413.488 303.768 415.268 304.969 418.49 305.621C421.515 306.234 423.515 307.44 422.937 308.305C422.357 309.168 421.12 309.441 420.187 308.908C419.254 308.377 418.425 309.31 418.346 310.981C418.263 312.743 417.816 313.138 417.284 311.92C416.777 310.764 415.228 309.82 413.84 309.82C412.385 309.82 411.744 310.85 412.327 312.251C412.917 313.667 416.504 314.946 420.927 315.317L428.513 315.954L419.857 316.246C415.097 316.407 411.201 317.326 411.201 318.285C411.201 319.312 410.186 319.159 408.742 317.916C407.39 316.751 406.454 314.643 406.659 313.23C406.865 311.816 406.681 311.606 406.249 312.76C405.819 313.916 403.886 314.86 401.956 314.86C400.024 314.86 398.444 315.476 398.444 316.229C398.444 316.982 401.314 318.86 404.822 320.402C408.331 321.944 411.201 324.395 411.201 325.851C411.201 327.306 411.944 328.074 412.852 327.556C413.759 327.039 414.075 325.104 413.55 323.258C412.938 321.099 413.495 319.9 415.112 319.9C416.495 319.9 418.436 321.527 419.425 323.518C420.974 326.636 422.993 327.212 433.981 327.669C440.997 327.963 448.787 328.669 451.293 329.238C455.829 330.269 455.821 330.288 449.471 333.579C444.649 336.079 444.204 336.623 447.648 335.816C450.154 335.228 454.05 334.341 456.304 333.848C459.605 333.122 460.405 333.665 460.405 336.623C460.405 338.644 461.635 341.432 463.138 342.818C465.567 345.057 465.872 344.869 465.872 341.128C465.872 338.812 466.781 334.788 467.893 332.188L469.912 327.459L471.942 331.659C473.059 333.969 474.791 336.384 475.791 337.028C476.793 337.669 477.116 338.652 476.511 339.21C475.906 339.768 476.115 343.114 476.977 346.647C478.018 350.92 477.754 355.871 476.187 361.44C474.893 366.044 474.18 372.561 474.605 375.92C475.031 379.28 476.11 381.612 477.003 381.103C477.898 380.594 478.628 380.953 478.628 381.904C478.628 382.853 479.713 383.246 481.038 382.778C482.423 382.287 484.369 383.792 485.617 386.315C486.811 388.731 487.36 391.345 486.837 392.124C486.312 392.906 487.181 394.738 488.765 396.198C490.35 397.66 492.408 398.854 493.337 398.854C494.268 398.854 495.03 396.964 495.03 394.654C495.03 392.345 494.046 390.455 492.843 390.455C491.143 390.455 491.143 390.006 492.843 388.439C494.046 387.33 495.03 385.052 495.03 383.376C495.03 381.701 494.235 379.016 493.266 377.412C492.295 375.808 490.804 369.014 489.951 362.317C489.098 355.617 489.012 350.137 489.761 350.137C490.51 350.137 491.713 354.485 492.435 359.797C493.322 366.338 494.146 368.408 494.984 366.207C495.866 363.896 496.621 363.553 497.607 365.021C498.367 366.155 497.997 368.184 496.787 369.53C495.498 370.96 495.349 371.976 496.426 371.976C497.441 371.976 498.232 372.922 498.184 374.076C498.139 375.232 498.23 382.035 498.387 389.195C498.571 397.503 499.411 402.214 500.71 402.214C501.847 402.214 502.325 400.732 501.791 398.854C501.268 397.006 501.516 395.494 502.345 395.494C503.174 395.494 504.45 397.952 505.182 400.954C505.988 404.267 506.874 405.422 507.435 403.894C507.942 402.508 509.695 400.24 511.328 398.854C513.441 397.062 514.212 393.789 513.997 387.515C513.833 382.665 514.329 378.695 515.103 378.695C515.876 378.695 517.006 379.892 517.615 381.353C518.223 382.815 518.721 386.927 518.721 390.493C518.721 394.058 519.59 397.472 520.654 398.076C521.783 398.721 522.369 403.628 522.065 409.893C521.715 417.069 522.331 421.312 523.929 422.749C525.89 424.509 526.122 423.73 525.225 418.376C524.378 413.315 524.851 411.359 527.35 409.61C529.119 408.372 529.672 407.336 528.576 407.307C527.459 407.277 526.643 404.31 526.714 400.534C526.783 396.838 527.366 393.814 528.01 393.814C528.653 393.814 529.686 396.65 530.308 400.114C530.929 403.58 531.447 408.537 531.458 411.132C531.468 413.854 530.707 415.411 529.655 414.813C528.553 414.185 527.833 416.508 527.833 420.693C527.833 425.779 527.23 427.276 525.555 426.349C523.804 425.378 523.756 425.647 525.354 427.51C526.497 428.842 527.375 432.956 527.306 436.651C527.215 441.437 525.936 444.458 522.856 447.151C519.566 450.027 519.22 450.93 521.405 450.93C522.985 450.93 524.919 452.63 525.702 454.71C526.486 456.79 526.539 464.915 525.819 472.769C525.099 480.622 524.099 489.128 523.598 491.668C522.956 494.923 523.446 496.287 525.26 496.287C526.991 496.287 527.884 498.349 527.986 502.587L528.141 508.886L531.567 502.029C534.647 495.864 535.545 495.246 540.466 495.913C543.988 496.388 546.412 497.934 547.268 500.25C548.001 502.227 548.517 504.225 548.415 504.687C548.313 505.149 549.379 506.501 550.788 507.692C552.265 508.944 553.346 509.122 553.346 508.112C553.346 507.153 554.576 506.367 556.08 506.367C557.795 506.367 558.894 508.089 559.028 510.986C559.149 513.526 559.127 516.229 558.985 516.99C558.841 517.753 559.564 517.897 560.59 517.311C561.618 516.727 562.458 513.269 562.458 509.627C562.458 505.985 563.074 503.007 563.825 503.007C564.576 503.005 565.024 517.35 564.82 534.881C565.327 551.661 567.348 567.357 567.348 567.357C567.348 567.357 573.819 588.94 584.915 555.923C585.493 552.227 586.298 543.156 586.705 535.765C587.111 528.373 587.561 519.446 587.707 515.927C587.88 511.722 588.662 509.921 589.989 510.677C591.383 511.472 591.636 510.272 590.805 506.79C589.903 503 590.335 501.495 592.549 500.712C594.168 500.139 595.102 499.089 594.625 498.379C594.149 497.666 594.887 495.205 596.267 492.906C597.648 490.608 598.829 489.484 598.895 490.408C598.96 491.332 601.45 487.318 604.426 481.489C607.404 475.66 610.635 471.344 611.608 471.899C612.581 472.453 613.816 471.175 614.35 469.058C614.886 466.941 615.526 456.138 615.772 445.051C616.171 427.026 616.555 424.917 619.408 425.126C621.162 425.253 622.597 424.397 622.597 423.221C622.597 422.047 624.853 420.669 627.608 420.162C631.34 419.475 633.445 420.175 635.853 422.907L639.086 426.572L638.586 421.532C638.125 416.871 638.736 416.303 646.734 413.973L655.381 411.453L655.39 397.527C655.398 386.626 654.554 382.065 651.511 376.528C649.371 372.64 647.013 369.078 646.271 368.616C645.53 368.154 644.42 365.13 643.804 361.897C643.19 358.663 643.155 356.963 643.727 358.117C644.299 359.273 646.136 360.156 647.806 360.084C649.701 360.002 649.987 359.632 648.566 359.105C647.314 358.638 646.288 357.094 646.288 355.671C646.288 353.855 646.966 353.569 648.566 354.713C649.819 355.609 655.389 356.506 660.945 356.706C669.472 357.012 672.736 356.187 681.902 351.404C687.873 348.29 695.007 344.379 697.755 342.714C700.505 341.051 703.859 340.08 705.211 340.559C706.563 341.036 708.456 340.93 709.42 340.322C710.386 339.715 712.976 336.483 715.179 333.14C717.381 329.797 719.183 326.312 719.183 325.394C719.183 324.476 717.127 324.087 714.616 324.529C712.105 324.973 709.03 324.591 707.782 323.684C706.536 322.777 703.184 322.345 700.336 322.725C697.489 323.105 694.032 322.554 692.654 321.501C691.085 320.299 687.408 320.012 682.799 320.729C678.21 321.445 675.446 321.232 675.446 320.163C675.446 319.223 677.29 318.119 679.546 317.711L683.646 316.966L679.566 315.722C677.323 315.038 675.945 313.795 676.503 312.962C677.062 312.128 678.283 311.88 679.216 312.412C680.149 312.943 680.913 312.53 680.913 311.493C680.913 310.457 682.347 309.773 684.102 309.973C685.857 310.173 688.722 309.763 690.469 309.063C692.219 308.362 693.161 307.06 692.565 306.172C691.967 305.283 693.203 304.139 695.308 303.632C697.415 303.124 699.137 302.041 699.137 301.224C699.137 300.41 701.139 299.741 703.585 299.741C707.332 299.741 708.307 300.868 709.769 306.88C711.119 312.436 711.547 312.995 711.698 309.4C711.806 306.86 713.534 303.269 715.538 301.421C717.543 299.573 719.183 297.367 719.183 296.521C719.183 295.672 723.023 293.628 727.715 291.975C734.267 289.668 736.423 289.462 737.011 291.086C737.553 292.586 738.451 292.348 740.108 290.26C741.401 288.627 747.197 286.394 753.136 285.239C759.018 284.095 766.702 283.033 770.21 282.882C775.433 282.655 774.443 282.186 764.743 280.295C758.227 279.025 751.474 277.21 749.733 276.263C747.993 275.317 745.081 274.543 743.264 274.543C741.445 274.543 738.959 273.622 737.738 272.497C736.517 271.371 732.867 270.341 729.629 270.21C726.389 270.078 720.315 269.095 716.13 268.026C709.927 266.441 708.309 265.177 707.354 261.176C706.559 257.84 704.912 256.101 702.206 255.747C699.683 255.416 698.01 253.833 697.641 251.426C697.165 248.335 698.131 247.429 702.833 246.563L708.609 245.498L701.715 243.314C697.925 242.111 694.116 241.53 693.254 242.022C692.392 242.512 690.493 242 689.033 240.885C687.574 239.767 686.38 238.279 686.38 237.575C686.38 236.873 688.02 235.902 690.025 235.418C692.029 234.936 693.67 235.245 693.67 236.105C693.67 236.967 696.13 236.498 699.137 235.065C702.144 233.633 704.604 231.822 704.604 231.042C704.604 230.263 701.53 229.157 697.77 228.584C694.012 228.012 688.607 227.535 685.76 227.524C682.615 227.513 679.276 226.023 677.248 223.726C674.792 220.943 674.068 217.798 674.504 211.794C674.966 205.4 676.299 202.496 680.68 198.33L686.265 193.018L677.086 188.262C672.038 185.647 667.58 182.635 667.179 181.568C666.779 180.501 666.066 169.81 665.596 157.808C664.832 138.328 664.338 135.685 660.981 133.181C658.913 131.637 657.222 129.928 657.222 129.384C657.222 128.838 658.452 128.393 659.956 128.393C661.459 128.393 662.689 128.008 662.689 127.538C662.689 127.068 660.345 124.422 657.481 121.658C654.616 118.895 651.833 116.634 651.299 116.634C650.765 116.634 649.812 118.524 649.183 120.833C648.555 123.143 646.967 125.033 645.657 125.033C644.083 125.033 643.529 126.632 644.024 129.749C644.494 132.7 643.694 135.291 641.887 136.673C639.774 138.291 638.998 141.919 638.998 150.191C638.998 156.41 638.477 166.088 637.841 171.699C636.802 180.866 636.21 182.008 631.991 182.984C628.631 183.762 626.628 183.228 624.946 181.109C623.654 179.48 622.597 179.063 622.597 180.184C622.597 181.304 620.625 183.05 618.214 184.063C614.616 185.573 612.493 185.21 606.368 182.037C602.264 179.91 598.906 177.555 598.906 176.8C598.906 176.046 600.451 175.43 602.341 175.43C604.231 175.43 609.971 174.181 615.098 172.654C620.224 171.129 624.419 169.342 624.419 168.683C624.419 168.025 621.345 165.616 617.585 163.328C613.827 161.04 608.353 157.811 605.424 156.15C600.646 153.443 600.409 152.921 603.119 151.095C604.781 149.974 606.357 147.25 606.624 145.041C607.019 141.756 604.947 139.715 595.261 133.849C588.746 129.903 583.151 125.549 582.827 124.175C582.492 122.754 583.532 121.673 585.234 121.673C586.883 121.673 589.327 120.662 590.669 119.427C592.701 117.554 591.445 116.432 583.078 112.649C574.69 108.858 573.414 107.715 575.268 105.656C576.957 103.779 576.981 102.635 575.362 100.838C573.733 99.0286 573.788 98.2643 575.594 97.5453C576.89 97.0296 575.783 97.0178 573.135 97.5184C570.489 98.0173 567.776 97.6108 567.105 96.6113C566.349 95.4824 567.825 94.75 571.007 94.6777C573.822 94.6122 577.766 93.9688 579.771 93.2465C582.998 92.0857 582.566 91.5347 576.004 88.4487C571.927 86.5303 567.628 83.8912 566.451 82.5826C564.725 80.6658 565.279 79.7822 569.307 78.0334L574.304 75.8614L568.297 73.533C564.995 72.253 562.786 70.4655 563.391 69.5634C563.996 68.6613 563.271 66.3162 561.778 64.3508C559.127 60.8633 559.036 60.9204 557.837 66.8101ZM560.636 145.156C560.636 145.946 559.612 146.972 558.358 147.439C557.106 147.905 557.924 148.347 560.18 148.419C562.436 148.491 564.28 149.205 564.28 150.001C564.28 150.799 562.436 151.275 560.18 151.056C557.924 150.838 555.639 150.564 555.101 150.446C554.562 150.327 554.011 148.876 553.876 147.219C553.723 145.361 554.972 144.113 557.133 143.964C559.059 143.829 560.636 144.367 560.636 145.156ZM569.254 146.206C568.649 146.764 567.076 146.825 565.762 146.339C564.308 145.803 564.74 145.405 566.863 145.324C568.784 145.252 569.859 145.649 569.254 146.206ZM527.833 157.611C527.833 157.974 526.603 158.706 525.099 159.239C523.596 159.77 522.366 159.472 522.366 158.579C522.366 157.683 523.596 156.951 525.099 156.951C526.603 156.951 527.833 157.248 527.833 157.611ZM547.879 177.109C547.879 178.033 547.059 178.789 546.057 178.789C545.054 178.789 544.234 178.033 544.234 177.109C544.234 176.186 545.054 175.43 546.057 175.43C547.059 175.43 547.879 176.186 547.879 177.109ZM565.192 177.109C564.572 178.033 563.295 178.789 562.351 178.789C561.407 178.789 560.636 178.033 560.636 177.109C560.636 176.186 561.915 175.43 563.477 175.43C565.039 175.43 565.811 176.186 565.192 177.109ZM500.497 190.549C500.497 191.472 501.678 192.228 503.123 192.228C504.568 192.228 506.256 191.472 506.875 190.549C507.495 189.625 506.312 188.869 504.249 188.869C502.186 188.869 500.497 189.625 500.497 190.549ZM482.273 200.628C482.273 201.552 481.912 202.308 481.47 202.308C481.027 202.308 480.159 201.552 479.54 200.628C478.92 199.704 479.283 198.948 480.343 198.948C481.404 198.948 482.273 199.704 482.273 200.628ZM558.813 204.087C558.813 205.064 558.079 205.447 557.182 204.937C556.284 204.424 555.01 205.305 554.35 206.89C553.328 209.346 552.907 209.41 551.502 207.314C550.206 205.382 549.379 205.293 547.633 206.902C545.889 208.51 544.834 208.506 542.705 206.887C540.562 205.258 539.837 205.268 539.226 206.937C538.802 208.098 537.706 208.621 536.79 208.098C535.873 207.576 535.122 206.486 535.122 205.674C535.122 204.865 537.788 203.895 541.045 203.522C544.302 203.151 549.634 202.724 552.891 202.577C556.147 202.429 558.813 203.109 558.813 204.087ZM652.345 211.382C652.885 212.678 652.857 214.169 652.287 214.697C651.715 215.224 650.541 215.253 649.679 214.762C648.815 214.27 648.11 212.78 648.11 211.448C648.11 210.116 648.843 209.027 649.737 209.027C650.632 209.027 651.806 210.087 652.345 211.382ZM542.412 215.562C542.412 216.845 540.978 218.986 539.223 220.318C536.267 222.564 536.261 222.675 539.164 221.836C540.887 221.339 542.689 221.522 543.172 222.241C543.655 222.96 535.76 224.445 525.63 225.541C515.497 226.637 506.846 227.199 506.403 226.792C505.961 226.384 506.079 225.336 506.664 224.462C507.249 223.589 510.815 221.512 514.591 219.849C518.366 218.184 523.421 216.62 525.825 216.373C528.226 216.125 530.851 215.317 531.656 214.574C532.46 213.833 535.21 213.227 537.765 213.227C540.517 213.227 542.412 214.179 542.412 215.562ZM548.603 214.347C548.087 215.117 546.893 215.747 545.949 215.747C545.005 215.747 544.234 215.117 544.234 214.347C544.234 213.576 545.428 212.946 546.888 212.946C548.347 212.946 549.118 213.576 548.603 214.347ZM671.801 214.067C671.801 214.991 669.341 215.747 666.334 215.747C663.327 215.747 660.867 214.991 660.867 214.067C660.867 213.143 663.327 212.387 666.334 212.387C669.341 212.387 671.801 213.143 671.801 214.067ZM687.596 215.187C686.927 215.802 686.38 216.877 686.38 217.573C686.38 218.27 688.735 219.317 691.614 219.899C694.491 220.482 699.024 220.456 701.686 219.839C705.555 218.944 706.104 218.253 704.429 216.394C703.277 215.113 699.292 214.067 695.572 214.067C691.853 214.067 688.263 214.571 687.596 215.187ZM651.177 221.102C650.596 222.441 650.164 222.043 650.076 220.086C649.998 218.315 650.428 217.324 651.033 217.882C651.638 218.44 651.704 219.889 651.177 221.102ZM567.925 221.766C567.925 223.229 566.952 224.128 565.762 223.762C564.57 223.395 563.273 222.199 562.875 221.102C562.478 220.004 563.453 219.107 565.04 219.107C566.626 219.107 567.925 220.304 567.925 221.766ZM492.362 230.978C492.4 236.734 491.861 239.84 491.123 238.116C490.407 236.438 489.761 233.048 489.69 230.584C489.621 228.117 490.06 224.906 490.669 223.444C491.278 221.983 491.892 220.788 492.036 220.788C492.18 220.79 492.326 225.374 492.362 230.978ZM518.721 230.866C517.217 231.761 513.117 232.416 509.609 232.321L503.231 232.148L508.698 230.866C511.705 230.16 515.805 229.505 517.81 229.411C520.809 229.268 520.97 229.525 518.721 230.866ZM547.385 231.88C546.78 232.438 545.207 232.499 543.893 232.013C542.439 231.477 542.871 231.079 544.994 230.998C546.915 230.926 547.99 231.323 547.385 231.88ZM447.648 238.425C447.648 239.811 448.443 240.945 449.414 240.945C450.384 240.945 450.706 239.811 450.131 238.425C449.553 237.039 448.758 235.905 448.365 235.905C447.971 235.905 447.648 237.039 447.648 238.425ZM470.883 238.005C470.466 239.161 469.03 240.105 467.694 240.105C466.358 240.105 464.922 239.161 464.505 238.005C464.053 236.755 465.345 235.905 467.694 235.905C470.043 235.905 471.335 236.755 470.883 238.005ZM645.451 237.698C646.113 238.682 646.197 239.91 645.637 240.424C645.079 240.938 643.304 240.895 641.695 240.325C640.084 239.756 639.277 238.528 639.902 237.597C640.525 236.666 641.759 235.905 642.643 235.905C643.527 235.905 644.791 236.712 645.451 237.698ZM556.991 239.265C556.991 240.189 555.557 240.933 553.802 240.92C551.075 240.898 551.01 240.656 553.346 239.265C554.85 238.37 556.286 237.626 556.535 237.61C556.785 237.597 556.991 238.341 556.991 239.265ZM620.774 240.945C620.774 241.869 620.413 242.625 619.971 242.625C619.528 242.625 618.66 241.869 618.041 240.945C617.421 240.021 617.784 239.265 618.844 239.265C619.905 239.265 620.774 240.021 620.774 240.945ZM551.03 245.319C550.425 245.877 548.852 245.938 547.538 245.452C546.084 244.916 546.516 244.518 548.639 244.438C550.56 244.365 551.635 244.762 551.03 245.319ZM559.269 245.417C558.017 245.884 555.967 245.884 554.713 245.417C553.461 244.952 554.485 244.57 556.991 244.57C559.497 244.57 560.523 244.952 559.269 245.417ZM694.462 247.841C693.908 248.667 692.274 249.344 690.828 249.344C689.383 249.344 688.202 248.715 688.202 247.945C688.202 247.174 688.693 246.092 689.292 245.541C689.892 244.989 691.526 244.941 692.926 245.437C694.326 245.931 695.018 247.013 694.462 247.841ZM500.156 250.492C501.47 250.977 503.043 250.917 503.648 250.359C504.253 249.801 503.178 249.405 501.257 249.477C499.134 249.558 498.702 249.956 500.156 250.492ZM393.888 259.424C394.508 260.348 394.145 261.104 393.085 261.104C392.024 261.104 391.155 260.348 391.155 259.424C391.155 258.5 391.515 257.744 391.958 257.744C392.401 257.744 393.269 258.5 393.888 259.424ZM413.934 261.08C411.93 261.886 408.035 262.6 405.278 262.666C402.521 262.73 400.27 262.216 400.276 261.524C400.281 260.832 404.176 260.118 408.932 259.938C415.208 259.701 416.58 260.013 413.934 261.08ZM646.778 260.526C645.544 260.986 643.084 261.015 641.311 260.588C639.538 260.161 640.547 259.785 643.554 259.751C646.561 259.718 648.012 260.065 646.778 260.526ZM392.977 264.463C392.977 265.387 392.157 266.143 391.155 266.143C390.152 266.143 389.332 265.387 389.332 264.463C389.332 263.539 390.152 262.784 391.155 262.784C392.157 262.784 392.977 263.539 392.977 264.463ZM418.317 266.242C417.005 266.99 415.188 267.178 414.282 266.662C413.377 266.147 413.708 265.112 415.019 264.364C416.331 263.617 418.148 263.429 419.053 263.944C419.959 264.46 419.627 265.495 418.317 266.242ZM408.735 267.296C408.296 267.701 404.784 268.393 400.932 268.834C396.514 269.338 394.593 269.049 395.731 268.052C396.722 267.181 399.173 266.158 401.178 265.777C403.182 265.396 405.883 265.416 407.179 265.821C408.475 266.227 409.176 266.891 408.735 267.296ZM423.957 271.106C423.957 272.072 421.956 272.863 419.509 272.863C417.062 272.863 414.554 273.619 413.934 274.543C413.315 275.467 413.882 276.246 415.194 276.273C416.537 276.303 416.054 277.141 414.087 278.193C411.141 279.769 410.999 280.355 413.176 281.954C414.596 282.998 416.744 285.47 417.953 287.453C419.695 290.308 419.657 291.432 417.774 292.872C415.999 294.231 414.523 293.771 411.933 291.051C408.817 287.78 408.79 287.52 411.656 288.484C413.411 289.074 414.846 289.006 414.846 288.333C414.846 287.661 413.174 286.149 411.133 284.973C408.156 283.258 405.273 283.245 396.554 284.904C388.102 286.514 385.201 286.525 383.501 284.958C381.8 283.391 382.003 282.887 384.412 282.69C386.116 282.551 388.536 282.363 389.788 282.27C391.042 282.178 393.531 280.752 395.321 279.102C397.123 277.441 399.565 276.646 400.788 277.323C402.167 278.086 402.058 277.476 400.5 275.705C398.269 273.172 398.517 272.863 402.778 272.863C405.406 272.863 407.556 272.248 407.556 271.497C407.556 270.746 411.246 269.955 415.757 269.74C420.52 269.511 423.957 270.084 423.957 271.106ZM424.413 277.335C423.161 277.802 421.111 277.802 419.857 277.335C418.605 276.869 419.629 276.488 422.135 276.488C424.641 276.488 425.667 276.869 424.413 277.335ZM448.487 302.004C451.264 303.875 451.403 304.525 449.29 305.752C447.887 306.57 443.663 307.389 439.903 307.576C436.146 307.762 433.069 307.21 433.069 306.348C433.069 305.486 433.889 304.781 434.892 304.781C435.894 304.781 436.714 303.647 436.714 302.261C436.714 300.749 438.396 299.741 440.922 299.741C443.236 299.741 446.641 300.759 448.487 302.004ZM429.425 309.82C429.425 310.744 428.555 311.5 427.495 311.5C426.434 311.5 426.071 310.744 426.691 309.82C427.311 308.896 428.178 308.14 428.621 308.14C429.064 308.14 429.425 308.896 429.425 309.82ZM438.139 311.759C437.753 312.826 435.635 314.314 433.432 315.065C431.043 315.88 429.425 315.775 429.425 314.806C429.425 313.911 431.114 313.18 433.177 313.18C435.24 313.18 436.423 312.424 435.803 311.5C435.183 310.576 435.613 309.82 436.758 309.82C437.904 309.82 438.524 310.694 438.139 311.759ZM496.852 332.744C496.852 333.911 498.902 336.756 501.408 339.065C503.914 341.375 505.964 344.478 505.964 345.961C505.964 347.571 506.812 348.174 508.069 347.458C509.372 346.714 509.678 346.996 508.871 348.197C508.157 349.264 506.912 350.137 506.105 350.137C505.297 350.137 502.5 347.295 499.888 343.821C497.277 340.347 494.864 335.832 494.525 333.785C494.186 331.739 493.341 329.542 492.646 328.902C491.954 328.262 491.411 326.92 491.443 325.919C491.474 324.919 492.705 325.567 494.177 327.36C495.648 329.154 496.852 331.576 496.852 332.744ZM489.479 338.378C489.656 334.548 489.847 334.454 491.638 337.296C493.146 339.687 492.932 341.031 490.722 343.07C488.094 345.493 487.589 345.173 484.998 339.458C483.436 336.011 482.771 332.279 483.52 331.165C484.367 329.907 485.716 331.682 487.083 335.858C488.819 341.16 489.324 341.691 489.479 338.378ZM516.024 351.738C517.278 355.55 517.155 355.654 514.406 353.119C512.769 351.611 511.431 349.039 511.431 347.401C511.431 345.59 512.064 345.051 513.05 346.022C513.939 346.899 515.277 349.472 516.024 351.738ZM505.798 354.431C506.538 354.01 507.331 357.463 507.561 362.105C507.79 366.746 508.67 372.221 509.516 374.272C510.493 376.641 510.181 379.915 508.661 383.248C507.346 386.134 506.609 388.81 507.027 389.195C507.444 389.579 506.557 389.895 505.053 389.895C503.26 389.895 502.247 388.113 502.11 384.714C501.995 381.865 502.072 378.024 502.283 376.176C502.494 374.328 503.409 372.564 504.315 372.256C505.223 371.947 505.964 371.003 505.964 370.157C505.964 369.308 504.94 368.806 503.686 369.036C502.387 369.276 501.151 367.387 500.811 364.633C500.481 361.981 500.787 357.823 501.49 355.394C502.194 352.965 503.149 351.927 503.612 353.087C504.074 354.248 505.058 354.853 505.798 354.431ZM518.564 366.936C518.621 369.246 517.903 372.248 516.97 373.607C516.037 374.966 514.723 375.569 514.048 374.948C513.374 374.328 512.61 371.527 512.354 368.727C512.095 365.927 512.601 364.045 513.48 364.546C514.358 365.045 515.134 363.331 515.204 360.736C515.317 356.585 515.521 356.422 516.899 359.377C517.761 361.225 518.509 364.626 518.564 366.936ZM537.014 437.911C537.014 449.23 537.163 460.758 537.347 463.53C537.532 466.301 537.4 473.861 537.056 480.328L536.431 492.088L535.046 482.848C534.284 477.767 533.584 467.183 533.491 459.33C533.398 451.476 533.849 438.815 534.492 431.192C535.135 423.57 535.966 417.333 536.338 417.333C536.71 417.333 537.014 426.592 537.014 437.911ZM567.348 515.082C566.766 516.421 566.334 516.023 566.247 514.066C566.168 512.295 566.599 511.304 567.204 511.861C567.809 512.419 567.874 513.869 567.348 515.082Z" fill="white"/>
<path d="M834.762 169.904H913.683V191.474H857.409V221.492H908.879V243.062H857.409V274.159H914.712V295.728H834.762V169.904Z" fill="white"/>
<path d="M1013.83 169.904V295.728H992.561V283.146H990.159C985.698 290.696 978.149 298.245 963.052 298.245C941.777 298.245 923.934 278.473 923.934 251.151C923.934 223.829 941.777 204.056 963.052 204.056C978.149 204.056 985.698 211.606 990.159 219.155H992.218V169.904H1013.83ZM968.885 224.188C955.846 224.188 945.552 233.895 945.552 251.151C945.552 268.407 955.846 278.113 968.885 278.113C982.267 278.113 992.218 268.047 992.218 251.151C992.218 234.254 982.267 224.188 968.885 224.188Z" fill="white"/>
<path d="M1096.61 206.574H1117.88V292.674C1117.88 317.12 1100.9 334.196 1074.13 334.196C1050.8 334.196 1037.59 323.051 1029.01 309.031L1047.2 297.167C1051.66 306.335 1059.89 314.783 1072.76 314.783C1086.14 314.783 1096.26 307.593 1096.26 291.775V280.271H1094.21C1089.74 287.821 1082.2 295.37 1067.1 295.37C1045.82 295.37 1027.98 276.317 1027.98 249.714C1027.98 223.111 1045.82 204.057 1067.1 204.057C1082.2 204.057 1089.74 211.607 1094.21 219.156H1096.61V206.574ZM1072.93 275.238C1086.31 275.238 1096.26 265.891 1096.26 249.714C1096.26 233.536 1086.31 224.189 1072.93 224.189C1059.89 224.189 1049.6 233.177 1049.6 249.714C1049.6 266.251 1059.89 275.238 1072.93 275.238Z" fill="white"/>
<path d="M1132.02 250.433C1132.02 223.47 1149.69 204.057 1174.74 204.057C1199.45 204.057 1216.09 222.212 1216.09 248.995V257.802H1154.16C1155.01 269.666 1163.08 278.833 1175.43 278.833C1187.44 278.833 1193.79 271.823 1196.7 265.532L1214.38 276.317C1208.54 285.664 1198.59 298.246 1175.77 298.246C1150.38 298.246 1132.02 278.114 1132.02 250.433ZM1154.33 241.984H1194.13C1192.59 230.66 1185.72 223.47 1174.57 223.47C1162.39 223.47 1156.04 231.02 1154.33 241.984Z" fill="white"/>
<path d="M834.762 369.043C834.762 337.767 854.149 317.994 884.517 317.994C914.884 317.994 931.869 335.61 931.869 363.651V367.965H909.222V363.291C909.222 348.911 900.987 339.205 884.517 339.205C867.531 339.205 857.409 352.147 857.409 367.965V398.882C857.409 416.137 866.845 427.641 884.517 427.641C902.531 427.641 909.222 417.755 909.222 403.555V398.882H931.869V403.196C931.869 431.057 916.256 448.852 884.517 448.852C855.007 448.852 834.762 431.236 834.762 397.803V369.043Z" fill="white"/>
<path d="M941.488 331.297C941.488 322.129 948.179 315.838 956.757 315.838C965.335 315.838 972.027 322.129 972.027 331.297C972.027 340.464 965.335 346.755 956.757 346.755C948.179 346.755 941.488 340.464 941.488 331.297ZM967.566 357.181V446.336H945.948V357.181H967.566Z" fill="white"/>
<path d="M977.906 357.18H999.523V329.498H1021.14V357.18H1044.47V376.593H1021.14V421.53C1021.14 425.125 1022.86 426.922 1025.95 426.922H1039.67V446.335H1016.34C1006.73 446.335 999.523 439.145 999.523 429.079V376.593H977.906V357.18Z" fill="white"/>
<path d="M1119.61 357.18H1142.94L1096.28 482.285H1072.94L1084.95 452.087L1049.61 357.18H1072.94L1095.25 421.17H1097.31L1119.61 357.18Z" fill="white"/>
</svg>
