<svg width="97" height="30" viewBox="0 0 97 30" fill="none" xmlns="http://www.w3.org/2000/svg">
<g clip-path="url(#clip0_561_2)">
<path d="M87.0377 26.3359C81.9926 26.3359 77.78 24.3346 77.2206 19.554C77.2033 19.4061 77.3099 19.2721 77.4574 19.2533L82.6339 18.5906C82.7959 18.5698 82.9399 18.6941 82.9541 18.857C83.1618 21.2383 84.8462 22.3142 87.1672 22.3142C89.6283 22.3142 90.8804 21.406 90.8804 19.806C90.8804 18.3789 89.2397 17.86 85.8287 17.0383C81.6838 16.0437 77.8842 14.7464 77.8842 10.2922C77.8842 5.5353 82.0724 3.67578 86.7355 3.67578C91.3996 3.67578 95.3975 5.21886 96.0712 9.94324C96.092 10.0891 95.9913 10.2251 95.8463 10.2498L90.8417 11.1047C90.6783 11.1326 90.5278 11.0107 90.5105 10.8456C90.2789 8.64249 88.8858 7.65428 86.8218 7.65428C85.0516 7.65428 83.5836 8.30295 83.5836 9.81651C83.5836 11.2868 85.1379 11.8058 88.0308 12.4544C91.8735 13.3193 96.6661 14.3572 96.6661 19.5033C96.6661 24.6926 92.0894 26.3359 87.0377 26.3359Z" fill="white"/>
<path d="M73.8412 5.73563C75.5683 7.46541 75.7841 9.80062 75.7841 12.6115V25.8703C75.7841 26.0236 75.6601 26.1479 75.507 26.1479H69.9734C69.8203 26.1479 69.6962 26.0236 69.6962 25.8703V13.1304C69.6962 11.1411 69.5235 10.1033 68.5736 9.19518C67.7965 8.46003 67.0624 8.3303 65.7671 8.3303C63.9105 8.3303 61.7517 9.58438 61.7517 14.0385V25.8703C61.7517 26.0236 61.6276 26.1479 61.4746 26.1479H55.9841C55.831 26.1479 55.707 26.0236 55.707 25.8703V4.49963C55.707 4.34634 55.831 4.22206 55.9841 4.22206H61.4314C61.5844 4.22206 61.7085 4.34634 61.7085 4.49963V6.85291C61.7085 6.98586 61.9058 7.02788 61.9676 6.91023C63.1824 4.59881 65.4915 3.70312 68.0987 3.70312C70.862 3.70312 72.4595 4.3518 73.8412 5.73563Z" fill="white"/>
<path d="M50.9237 6.45735C53.0199 8.59239 54.0759 11.8374 54.1648 15.9468C54.1681 16.0979 54.0486 16.2231 53.8979 16.2279L38.6548 16.7105C38.5005 16.7154 38.3796 16.8463 38.3902 17.0005C38.6266 20.4418 40.4017 22.15 43.5537 22.0502C46.2134 21.966 47.5558 20.7599 47.9736 18.6513C48.0012 18.5117 48.1256 18.4104 48.2675 18.4184L53.5765 18.7187C53.7474 18.7283 53.8688 18.8906 53.8268 19.0569C52.6468 23.7285 49.1329 26.1569 43.6888 26.3293C40.3226 26.4358 37.6129 25.44 35.7445 23.7252C33.6089 21.7593 32.4832 18.9394 32.3686 15.3086C32.2594 11.8508 33.1161 8.88158 35.1666 6.78315C37.0067 4.86445 39.5647 3.78834 42.9308 3.68177C46.34 3.57383 49.0498 4.5697 50.9237 6.45735ZM43.0631 7.8744C41.2937 7.93042 40.0586 8.48872 39.2728 9.59525C38.7447 10.3215 38.4373 11.2202 38.3167 12.2599C38.2976 12.4242 38.431 12.564 38.5961 12.5588L47.6052 12.2735C47.7687 12.2684 47.8926 12.123 47.8671 11.9611C47.6778 10.7596 47.2964 9.75423 46.5551 9.01857C45.7079 8.18006 44.6167 7.82522 43.0631 7.8744Z" fill="white"/>
<path d="M12.8069 0.278909L4.5213 13.9123C4.45632 14.0192 4.30534 14.0311 4.22474 13.9354C3.49531 13.0693 0.777793 9.38466 4.14044 6.02631C7.20887 2.96181 11.1172 0.776893 12.5657 0.0217387C12.73 -0.0639373 12.9031 0.120655 12.8069 0.278909Z" fill="white"/>
<path d="M12.3428 29.966C12.5082 30.0817 12.7119 29.8843 12.6011 29.7158C10.7504 26.9009 4.59842 17.5351 3.74859 16.1291C2.91038 14.7424 1.26174 12.4378 1.12421 10.4661C1.11048 10.2692 0.838295 10.2293 0.769825 10.4144C0.6594 10.7129 0.541837 11.0692 0.432269 11.4763C-0.950933 16.6145 1.0579 22.067 5.42067 25.1207L12.3428 29.966Z" fill="white"/>
<path d="M13.4807 29.7195L21.7663 16.0861C21.8313 15.9792 21.9823 15.9673 22.0629 16.063C22.7923 16.9291 25.5098 20.6137 22.1472 23.9721C19.0788 27.0366 15.1705 29.2215 13.722 29.9766C13.5577 30.0623 13.3845 29.8777 13.4807 29.7195Z" fill="white"/>
<path d="M13.9421 0.0346591C13.7768 -0.0810829 13.573 0.116302 13.6839 0.284863C15.5346 3.09974 21.6866 12.4655 22.5364 13.8715C23.3746 15.2582 25.0232 17.5628 25.1608 19.5346C25.1745 19.7314 25.4467 19.7714 25.5152 19.5863C25.6256 19.2877 25.7431 18.9314 25.8527 18.5243C27.2359 13.3861 25.2271 7.93365 20.8643 4.87989L13.9421 0.0346591Z" fill="white"/>
</g>
<defs>
<clipPath id="clip0_561_2">
<rect width="97" height="30" fill="white"/>
</clipPath>
</defs>
</svg>
