<svg width="488" height="101" viewBox="0 0 488 101" fill="none" xmlns="http://www.w3.org/2000/svg">
<path d="M15.1419 31.6448L42.5691 15.7858V15.7802C43.4864 15.2494 44.6169 15.2494 45.5342 15.7802L72.9614 31.6392C73.8788 32.17 74.444 33.15 74.444 34.2116V65.9278C74.444 66.9894 73.8788 67.9694 72.9614 68.5002L45.5342 84.3593C44.6169 84.8901 43.4864 84.8901 42.5691 84.3593L28.4849 76.2154C27.5675 75.6846 27.0023 74.7046 27.0023 73.643V41.9268C27.0023 40.8652 27.5675 39.8852 28.4849 39.3544L42.5691 31.2105C43.4864 30.6797 44.6169 30.6797 45.5342 31.2105L59.6185 39.3544C60.5358 39.8852 61.101 40.8652 61.101 41.9268V58.2146C61.101 59.2761 60.5358 60.2561 59.6185 60.7869L45.5083 68.9456C44.5947 69.4746 43.4698 69.4764 42.5543 68.953L41.839 68.5448C40.9161 68.0158 40.3453 67.0322 40.3453 65.9668V49.2707C40.3453 48.4764 40.7697 47.7396 41.4572 47.3424L43.3104 46.2715C43.77 46.0061 44.3334 46.0061 44.7929 46.2715L46.2755 47.129C47.1928 47.6598 47.758 48.6397 47.758 49.7013V57.7932C47.758 58.3649 48.3752 58.7212 48.87 58.4354L52.2057 56.5071C53.123 55.9763 53.6883 54.9963 53.6883 53.9347V46.2196C53.6883 45.158 53.123 44.178 52.2057 43.6472L45.5342 39.7906C44.6169 39.2598 43.4864 39.2598 42.5691 39.7906L35.8976 43.6472C34.9803 44.178 34.4151 45.158 34.4151 46.2196V69.3651C34.4151 70.4267 34.9803 71.4066 35.8976 71.9374L42.5691 75.7941C43.4864 76.3249 44.6169 76.3249 45.5342 75.7941L65.5487 64.2222C66.466 63.6914 67.0312 62.7115 67.0312 61.6499V38.5044C67.0312 37.4428 66.466 36.4628 65.5487 35.932L45.5342 24.3602C44.6169 23.8294 43.4864 23.8294 42.5691 24.3602L22.5547 35.932C21.6373 36.4628 21.0721 37.4428 21.0721 38.5044V70.6494C21.0721 71.221 20.455 71.5774 19.9602 71.2915L16.6245 69.3632C14.7898 68.3035 13.6593 66.3417 13.6593 64.2204V34.2171C13.6593 33.1555 14.2246 32.1756 15.1419 31.6448Z" fill="white"/>
<path fill-rule="evenodd" clip-rule="evenodd" d="M42.5697 99.7506L1.83656 76.1987C0.919227 75.6679 0.354004 74.6879 0.354004 73.6263V26.5224C0.354004 25.4608 0.919227 24.4809 1.83656 23.9501L42.5697 0.3981C43.487 -0.1327 44.6175 -0.1327 45.5348 0.3981L86.2679 23.9501C87.1852 24.4809 87.7505 25.4608 87.7505 26.5224V73.6263C87.7505 74.6879 87.1852 75.6679 86.2679 76.1987L45.5348 99.7506C44.6175 100.281 43.487 100.281 42.5697 99.7506ZM9.24932 71.9133L42.5697 91.1798C43.487 91.7107 44.6175 91.7107 45.5348 91.1798L78.8551 71.9133C79.7725 71.3825 80.3377 70.4025 80.3377 69.3409V30.8096C80.3377 29.748 79.7725 28.7681 78.8551 28.2373L45.5348 8.97073C44.6175 8.43993 43.487 8.43993 42.5697 8.97073L9.24932 28.2373C8.33199 28.7681 7.76677 29.748 7.76677 30.8096V69.3409C7.76677 70.4025 8.33199 71.3825 9.24932 71.9133Z" fill="white"/>
<path d="M161.104 67.5198C165.165 67.5198 167.196 64.713 167.196 59.0992V44.6279H173.187V71.7553H167.196V68.0241C165.585 70.9486 162.916 72.4108 159.19 72.4108C153.149 72.4108 150.128 68.8476 150.128 61.7212V44.6279H156.119V60.2589C156.119 61.3346 156.169 62.2422 156.27 62.9818C156.371 63.7213 156.572 64.4777 156.874 65.2508C157.21 65.9903 157.73 66.5618 158.435 66.9652C159.14 67.3349 160.029 67.5198 161.104 67.5198Z" fill="white"/>
<path d="M192.77 44.0228C189.145 44.0228 186.527 45.4851 184.916 48.4096V44.6279H178.925V71.7553H184.916V57.3344C184.916 51.7207 186.897 48.9138 190.857 48.9138C191.931 48.9138 192.804 49.1155 193.475 49.5189C194.147 49.8886 194.633 50.4601 194.935 51.2333C195.238 51.9728 195.422 52.7123 195.489 53.4519C195.59 54.1578 195.64 55.0654 195.64 56.1747V71.7553H201.632V57.3344C201.632 51.7207 203.612 48.9138 207.573 48.9138C208.647 48.9138 209.52 49.1155 210.191 49.5189C210.862 49.8886 211.349 50.4601 211.651 51.2333C211.953 51.9728 212.138 52.7123 212.205 53.4519C212.305 54.1578 212.356 55.0654 212.356 56.1747V71.7553H218.347V54.7124C218.347 47.586 215.394 44.0228 209.486 44.0228C205.827 44.0228 202.89 45.6195 200.675 48.813C199.333 45.6195 196.698 44.0228 192.77 44.0228Z" fill="white"/>
<path fill-rule="evenodd" clip-rule="evenodd" d="M232.003 72.4108C229.049 72.4108 226.632 71.6713 224.753 70.1922C222.907 68.7132 221.984 66.7467 221.984 64.2928C221.984 63.1835 222.185 62.1918 222.588 61.3178C223.024 60.4438 223.679 59.6875 224.551 59.0488C225.424 58.4101 226.364 57.8723 227.371 57.4353C228.378 56.9646 229.62 56.5613 231.097 56.2251C232.607 55.889 234.034 55.62 235.376 55.4184C236.752 55.2167 238.364 55.015 240.21 54.8133V54.3091C240.21 50.2752 238.33 48.2583 234.571 48.2583C232.993 48.2583 231.701 48.6785 230.694 49.5189C229.721 50.3593 229.2 51.5694 229.133 53.1493H223.242C223.444 50.3929 224.602 48.1575 226.716 46.4431C228.831 44.6951 231.516 43.8211 234.772 43.8211C238.296 43.8211 241.099 44.7455 243.18 46.5944C245.261 48.4096 246.268 51.3677 246.201 55.4688C246.201 55.8049 246.184 56.8302 246.151 58.5446C246.117 60.2589 246.1 61.5699 246.1 62.4776C246.1 66.4778 246.369 69.5704 246.906 71.7553H241.418C241.149 70.2763 240.982 69.0493 240.915 68.0745C239.203 70.9654 236.232 72.4108 232.003 72.4108ZM238.498 66.2088C239.74 65.0659 240.361 63.3515 240.361 61.0657V58.9984C235.997 59.4018 232.892 59.99 231.046 60.7632C229.234 61.5027 228.328 62.6288 228.328 64.1415C228.328 65.318 228.781 66.2425 229.687 66.9148C230.593 67.5871 231.802 67.9232 233.312 67.9232C235.561 67.9232 237.29 67.3518 238.498 66.2088Z" fill="white"/>
<path d="M265.451 44.0228C261.591 44.0228 258.855 45.4851 257.244 48.4096V44.6279H251.253V71.7553H257.244V57.3344C257.244 51.7207 259.342 48.9138 263.538 48.9138C264.645 48.9138 265.552 49.1155 266.256 49.5189C266.995 49.8886 267.515 50.4601 267.817 51.2333C268.153 51.9728 268.371 52.7123 268.472 53.4519C268.606 54.1914 268.673 55.099 268.673 56.1747V71.7553H274.665V54.7124C274.665 47.586 271.593 44.0228 265.451 44.0228Z" fill="white"/>
<path fill-rule="evenodd" clip-rule="evenodd" d="M308.968 57.4857C307.257 57.7882 305.243 57.9395 302.927 57.9395H297.187V71.7553H290.793V35.1988H302.826C304.639 35.1988 306.216 35.266 307.559 35.4005C308.901 35.5349 310.277 35.8375 311.687 36.3081C313.131 36.7787 314.305 37.4174 315.212 38.2242C316.118 39.0309 316.856 40.157 317.427 41.6025C318.031 43.0143 318.333 44.7119 318.333 46.6952C318.333 48.9138 317.947 50.7963 317.175 52.3426C316.403 53.8552 315.279 55.015 313.802 55.8217C312.325 56.5949 310.714 57.1495 308.968 57.4857ZM305.494 40.4428C304.756 40.3755 303.867 40.3419 302.826 40.3419H297.187V52.6955H303.128C305.948 52.6955 308.079 52.3089 309.522 51.5358C310.966 50.729 311.687 49.1323 311.687 46.7456C311.687 45.6027 311.503 44.6279 311.133 43.8211C310.798 43.0143 310.378 42.3925 309.875 41.9555C309.371 41.4848 308.7 41.1319 307.861 40.8966C307.022 40.6613 306.233 40.51 305.494 40.4428Z" fill="white"/>
<path fill-rule="evenodd" clip-rule="evenodd" d="M321.519 70.1922C323.399 71.6713 325.816 72.4108 328.769 72.4108C332.999 72.4108 335.969 70.9654 337.681 68.0745C337.748 69.0493 337.916 70.2763 338.184 71.7553H343.672C343.135 69.5704 342.867 66.4778 342.867 62.4776C342.867 61.5699 342.884 60.2589 342.917 58.5446C342.951 56.8302 342.967 55.8049 342.967 55.4688C343.035 51.3677 342.028 48.4096 339.947 46.5944C337.866 44.7455 335.063 43.8211 331.538 43.8211C328.283 43.8211 325.597 44.6951 323.483 46.4431C321.368 48.1575 320.21 50.3929 320.009 53.1493H325.9C325.967 51.5694 326.487 50.3593 327.46 49.5189C328.467 48.6785 329.76 48.2583 331.337 48.2583C335.096 48.2583 336.976 50.2752 336.976 54.3091V54.8133C335.13 55.015 333.519 55.2167 332.143 55.4184C330.8 55.62 329.374 55.889 327.863 56.2251C326.386 56.5613 325.144 56.9646 324.137 57.4353C323.13 57.8723 322.191 58.4101 321.318 59.0488C320.445 59.6875 319.791 60.4438 319.354 61.3178C318.952 62.1918 318.75 63.1835 318.75 64.2928C318.75 66.7467 319.673 68.7132 321.519 70.1922ZM327.813 60.7632C329.659 59.99 332.764 59.4018 337.127 58.9984V61.0657C337.127 63.3515 336.506 65.0659 335.264 66.2088C334.056 67.3518 332.327 67.9232 330.078 67.9232C328.568 67.9232 327.36 67.5871 326.453 66.9148C325.547 66.2425 325.094 65.318 325.094 64.1415C325.094 62.6288 326 61.5027 327.813 60.7632Z" fill="white"/>
<path d="M365.188 46.0901C367.269 47.4683 368.578 49.4516 369.115 52.04H363.476C362.872 49.7542 360.892 48.6113 357.535 48.6113C356.159 48.6113 354.967 48.897 353.96 49.4685C352.987 50.0063 352.5 50.7122 352.5 51.5862C352.5 53.267 353.709 54.3427 356.125 54.8133L359.952 55.5696C361.462 55.8722 362.738 56.2083 363.778 56.5781C364.852 56.9142 365.859 57.3848 366.799 57.9899C367.739 58.595 368.444 59.3681 368.914 60.3094C369.384 61.2506 369.618 62.3599 369.618 63.6373C369.618 66.3601 368.511 68.5115 366.296 70.0914C364.08 71.6377 361.361 72.4108 358.139 72.4108C354.883 72.4108 352.198 71.5873 350.083 69.9401C347.969 68.2594 346.744 66.108 346.408 63.486H352.248C352.819 66.4105 354.85 67.8728 358.341 67.8728C359.952 67.8728 361.261 67.5534 362.268 66.9148C363.275 66.2761 363.778 65.4189 363.778 64.3432C363.778 62.4944 362.217 61.2506 359.096 60.6119L355.018 59.8051C352.467 59.2673 350.469 58.3933 349.026 57.1831C347.583 55.973 346.861 54.2082 346.861 51.8888C346.861 49.5693 347.935 47.6869 350.083 46.2414C352.265 44.7623 354.867 44.0228 357.887 44.0228C360.673 44.0228 363.107 44.7119 365.188 46.0901Z" fill="white"/>
<path d="M383.029 48.6113C386.386 48.6113 388.366 49.7542 388.971 52.04H394.61C394.072 49.4516 392.763 47.4683 390.682 46.0901C388.601 44.7119 386.168 44.0228 383.382 44.0228C380.361 44.0228 377.76 44.7623 375.578 46.2414C373.43 47.6869 372.356 49.5693 372.356 51.8888C372.356 54.2082 373.077 55.973 374.521 57.1831C375.964 58.3933 377.961 59.2673 380.512 59.8051L384.59 60.6119C387.712 61.2506 389.273 62.4944 389.273 64.3432C389.273 65.4189 388.769 66.2761 387.762 66.9148C386.755 67.5534 385.446 67.8728 383.835 67.8728C380.344 67.8728 378.314 66.4105 377.743 63.486H371.903C372.238 66.108 373.463 68.2594 375.578 69.9401C377.693 71.5873 380.378 72.4108 383.634 72.4108C386.856 72.4108 389.575 71.6377 391.79 70.0914C394.005 68.5115 395.113 66.3601 395.113 63.6373C395.113 62.3599 394.878 61.2506 394.408 60.3094C393.938 59.3681 393.233 58.595 392.294 57.9899C391.354 57.3848 390.347 56.9142 389.273 56.5781C388.232 56.2083 386.957 55.8722 385.446 55.5696L381.62 54.8133C379.203 54.3427 377.995 53.267 377.995 51.5862C377.995 50.7122 378.481 50.0063 379.455 49.4685C380.462 48.897 381.653 48.6113 383.029 48.6113Z" fill="white"/>
<path fill-rule="evenodd" clip-rule="evenodd" d="M413.055 72.4108C409.397 72.4108 406.711 70.999 405 68.1753V80.5793H399.008V44.6279H405V48.2583C406.711 45.4346 409.397 44.0228 413.055 44.0228C416.445 44.0228 419.231 45.317 421.413 47.9053C423.595 50.4937 424.686 53.9225 424.686 58.1916C424.686 62.4944 423.595 65.9399 421.413 68.5283C419.231 71.1167 416.445 72.4108 413.055 72.4108ZM406.712 51.3341C405.402 52.914 404.748 55.1998 404.748 58.1916C404.748 61.1834 405.402 63.486 406.712 65.0995C408.021 66.7131 409.699 67.5198 411.746 67.5198C413.861 67.5198 415.506 66.6963 416.68 65.0491C417.855 63.402 418.443 61.1161 418.443 58.1916C418.443 55.3343 417.855 53.0821 416.68 51.4349C415.506 49.7542 413.861 48.9138 411.746 48.9138C409.699 48.9138 408.021 49.7206 406.712 51.3341Z" fill="white"/>
<path fill-rule="evenodd" clip-rule="evenodd" d="M440.408 44.0228C436.783 44.0228 433.645 45.2497 430.993 47.7037C428.375 50.1576 427.066 53.6704 427.066 58.242C427.066 62.8473 428.375 66.3601 430.993 68.7804C433.645 71.2007 436.783 72.4108 440.408 72.4108C444.034 72.4108 447.155 71.2007 449.773 68.7804C452.425 66.3601 453.751 62.8473 453.751 58.242C453.751 53.6704 452.425 50.1576 449.773 47.7037C447.155 45.2497 444.034 44.0228 440.408 44.0228ZM433.259 58.242C433.259 55.2503 433.93 52.9476 435.273 51.3341C436.649 49.7206 438.361 48.9138 440.408 48.9138C442.456 48.9138 444.151 49.7206 445.494 51.3341C446.87 52.9476 447.558 55.2503 447.558 58.242C447.558 61.2338 446.87 63.5364 445.494 65.15C444.151 66.7299 442.456 67.5198 440.408 67.5198C438.361 67.5198 436.649 66.7299 435.273 65.15C433.93 63.5364 433.259 61.2338 433.259 58.242Z" fill="white"/>
<path d="M477.411 70.3435C476.538 69.3687 476.102 67.4694 476.102 64.6457V48.9642H472.47V50.729C471.463 50.6282 470.506 50.5778 469.6 50.5778C467.586 50.5778 466.092 51.0988 465.119 52.1409C464.146 53.1493 463.659 54.9477 463.659 57.5361V71.7553H457.668V44.6279H463.558V49.4685C465.102 46.275 467.553 44.6447 470.909 44.5774C471.247 44.5774 471.635 44.5976 472.074 44.638V44.6279H476.102V37.4678H482.093V44.6279H487.531V48.9642H482.093V63.7381C482.093 65.1163 482.312 66.0408 482.748 66.5114C483.184 66.9484 484.04 67.1669 485.316 67.1669H487.481V71.7553H483.05C480.197 71.7553 478.317 71.2847 477.411 70.3435Z" fill="white"/>
<path d="M138.04 35.1988H144.434V71.7553H138.04V55.62H120.619V71.7553H114.225V35.1988H120.619V50.3256H138.04V35.1988Z" fill="white"/>
</svg>
