<svg width="453" height="139" viewBox="0 0 453 139" fill="none" xmlns="http://www.w3.org/2000/svg">
<g clip-path="url(#clip0_542_1402)">
<path d="M13.75 109.317C19.6224 117.486 27.155 124.32 35.854 129.373C44.5531 134.426 54.2217 137.583 64.2265 138.637C59.0793 130.891 51.5973 123.765 42.2568 118.34C32.9163 112.915 23.0245 109.951 13.75 109.317Z" fill="white"/>
<path d="M54.8075 96.738C36.8122 86.2832 17.335 83.6188 3.39844 88.3256C4.74384 92.7723 6.5182 97.0777 8.69651 101.181C20.805 100.901 34.0254 104.189 46.3269 111.334C58.6286 118.479 68.0375 128.34 73.795 139C78.4411 138.857 83.0627 138.265 87.5949 137.233C84.7772 122.797 72.7986 107.195 54.8075 96.738Z" fill="white"/>
<path d="M140.558 54.302C138.27 44.9956 134.13 36.2458 128.385 28.5749C122.641 20.904 115.409 14.4693 107.123 9.65515C98.8364 4.84095 89.6647 1.74596 80.156 0.554945C70.6468 -0.636068 60.9951 0.101334 51.7773 2.72312C67.1766 4.60769 84.2699 10.3887 101.033 20.1273C117.797 29.8659 131.297 41.8495 140.558 54.302Z" fill="white"/>
<path d="M118.152 88.4308C110.27 75.3402 96.7669 62.8052 80.1327 53.1423C63.499 43.4788 45.9253 37.9593 30.6625 37.5942C17.2348 37.2762 7.15695 41.1796 3.02027 48.3012C2.99671 48.3434 2.96373 48.3833 2.93782 48.4259C2.56562 49.7616 2.24523 51.0994 1.95312 52.4425C7.72941 50.1621 14.422 48.8924 21.8638 48.7508C38.4128 48.4402 56.9335 53.7334 74.0246 63.6627C91.1153 73.5924 104.899 87.0647 112.823 101.59C116.376 108.134 118.593 114.577 119.471 120.733C120.494 119.819 121.497 118.874 122.47 117.892C122.496 117.847 122.513 117.8 122.538 117.753C126.675 110.624 125.076 99.9386 118.152 88.4308Z" fill="white"/>
<path d="M67.4816 74.9241C42.009 60.1256 13.8603 57.8073 0.324219 68.1349C0.350806 71.3675 0.597943 74.5944 1.06392 77.7935C5.04577 76.5864 9.1496 75.8263 13.2996 75.5274C28.4258 74.3894 45.102 78.6041 60.2354 87.4C75.3684 96.1964 87.2979 108.602 93.8043 122.295C95.6031 126.047 96.9748 129.989 97.8939 134.046C100.905 132.866 103.832 131.483 106.655 129.907C108.921 113.03 92.9612 89.7252 67.4816 74.9241Z" fill="white"/>
<path d="M131.257 66.523C123.285 53.4464 109.664 40.8761 92.9124 31.1493C76.161 21.4225 58.5187 15.8158 43.2066 15.3658C31.5339 15.029 22.4926 17.8582 17.8047 23.2034C37.2701 19.9053 62.9453 25.4484 87.8312 39.9056C112.717 54.3629 130.258 73.9247 137.029 92.4666C139.349 85.7504 137.33 76.4948 131.257 66.523Z" fill="white"/>
<path d="M203.018 43.0444H214.901V82.6928C214.901 86.358 214.078 89.5415 212.43 92.2441C210.802 94.9468 208.534 97.0291 205.628 98.4912C202.722 99.9537 199.344 100.685 195.493 100.685C192.069 100.685 188.96 100.083 186.165 98.88C183.388 97.6581 181.185 95.8073 179.556 93.327C177.928 90.8281 177.122 87.6906 177.141 83.9147H189.108C189.145 85.4141 189.45 86.7003 190.024 87.774C190.616 88.8291 191.421 89.6436 192.439 90.2174C193.476 90.7725 194.698 91.05 196.105 91.05C197.585 91.05 198.835 90.7356 199.853 90.1062C200.889 89.4585 201.676 88.5142 202.213 87.2741C202.75 86.034 203.018 84.5067 203.018 82.6928V43.0444ZM251.968 81.7489V57.26H263.796V99.9073H252.44V92.1607H251.995C251.033 94.6597 249.432 96.6682 247.192 98.1859C244.971 99.7035 242.259 100.462 239.057 100.462C236.206 100.462 233.698 99.8147 231.533 98.519C229.367 97.2233 227.673 95.3816 226.452 92.9938C225.249 90.6061 224.638 87.7462 224.619 84.4142V57.26H236.447V82.304C236.466 84.8216 237.141 86.8115 238.474 88.2736C239.806 89.7361 241.593 90.4671 243.833 90.4671C245.258 90.4671 246.59 90.1431 247.831 89.4954C249.071 88.8291 250.071 87.8479 250.829 86.5522C251.607 85.2564 251.986 83.6553 251.968 81.7489ZM273.257 115.9V57.26H284.918V64.4237H285.446C285.964 63.2761 286.714 62.1098 287.694 60.9253C288.694 59.7221 289.99 58.7226 291.581 57.9264C293.192 57.1119 295.191 56.7049 297.579 56.7049C300.688 56.7049 303.558 57.5194 306.186 59.1483C308.814 60.7585 310.915 63.1927 312.489 66.4504C314.062 69.6895 314.848 73.7526 314.848 78.6393C314.848 83.3965 314.081 87.4131 312.544 90.6891C311.026 93.9469 308.953 96.418 306.325 98.1025C303.715 99.7683 300.79 100.601 297.551 100.601C295.256 100.601 293.303 100.222 291.693 99.4629C290.101 98.7041 288.796 97.7511 287.778 96.603C286.76 95.4372 285.982 94.2618 285.446 93.0772H285.085V115.9H273.257ZM284.834 78.5837C284.834 81.1195 285.186 83.3313 285.89 85.2195C286.593 87.1077 287.611 88.5789 288.944 89.634C290.277 90.6708 291.896 91.189 293.803 91.189C295.728 91.189 297.357 90.6613 298.69 89.6066C300.022 88.5329 301.031 87.0521 301.716 85.1639C302.419 83.2575 302.771 81.0639 302.771 78.5837C302.771 76.1217 302.429 73.9563 301.744 72.0868C301.059 70.2173 300.05 68.7548 298.717 67.6997C297.384 66.6446 295.746 66.1173 293.803 66.1173C291.878 66.1173 290.249 66.6263 288.916 67.6441C287.602 68.6622 286.593 70.1061 285.89 71.9756C285.186 73.8451 284.834 76.0478 284.834 78.5837ZM322.734 99.9073V57.26H334.562V99.9073H322.734ZM328.676 51.7627C326.917 51.7627 325.408 51.1798 324.15 50.0135C322.91 48.829 322.29 47.4129 322.29 45.7653C322.29 44.1365 322.91 42.739 324.15 41.5729C325.408 40.3882 326.917 39.7959 328.676 39.7959C330.434 39.7959 331.934 40.3882 333.174 41.5729C334.432 42.739 335.061 44.1365 335.061 45.7653C335.061 47.4129 334.432 48.829 333.174 50.0135C331.934 51.1798 330.434 51.7627 328.676 51.7627ZM366.721 57.26V66.1451H341.038V57.26H366.721ZM346.869 47.0424H358.697V86.8023C358.697 87.8944 358.863 88.7457 359.196 89.3564C359.529 89.9489 359.992 90.3655 360.584 90.6061C361.196 90.8468 361.899 90.9671 362.695 90.9671C363.25 90.9671 363.805 90.9206 364.361 90.8281C364.916 90.7169 365.342 90.6339 365.638 90.5783L367.498 99.3799C366.906 99.565 366.073 99.7778 364.999 100.018C363.926 100.277 362.621 100.435 361.084 100.49C358.234 100.601 355.735 100.222 353.588 99.3521C351.459 98.4821 349.803 97.1308 348.618 95.2982C347.433 93.4656 346.85 91.1521 346.869 88.357V47.0424ZM393.403 100.74C389.016 100.74 385.24 99.8517 382.075 98.0747C378.928 96.2794 376.503 93.7436 374.8 90.4671C373.097 87.1724 372.246 83.2761 372.246 78.7783C372.246 74.3911 373.097 70.5409 374.8 67.2279C376.503 63.9146 378.901 61.3323 381.991 59.4814C385.101 57.6301 388.748 56.7049 392.931 56.7049C395.744 56.7049 398.364 57.1584 400.788 58.0654C403.232 58.9537 405.361 60.2959 407.174 62.0911C409.007 63.8868 410.432 66.1451 411.45 68.866C412.468 71.5686 412.977 74.7334 412.977 78.3617V81.6099H376.966V74.2799H401.843C401.843 72.5772 401.473 71.0686 400.733 69.7542C399.993 68.4403 398.965 67.413 397.651 66.6724C396.355 65.9135 394.847 65.5339 393.125 65.5339C391.33 65.5339 389.738 65.9505 388.35 66.7836C386.98 67.598 385.906 68.6992 385.129 70.0874C384.351 71.4574 383.954 72.9842 383.935 74.6687V81.6377C383.935 83.7479 384.324 85.5714 385.101 87.1077C385.897 88.6441 387.017 89.8286 388.461 90.6617C389.904 91.4944 391.617 91.911 393.597 91.911C394.911 91.911 396.115 91.7259 397.207 91.3558C398.299 90.9853 399.234 90.4302 400.011 89.6896C400.788 88.9494 401.381 88.0425 401.788 86.9687L412.727 87.6906C412.172 90.319 411.034 92.6142 409.312 94.5762C407.609 96.5201 405.407 98.0377 402.704 99.1297C400.02 100.203 396.92 100.74 393.403 100.74ZM420.696 99.9073V57.26H432.163V64.7012H432.607C433.385 62.0542 434.69 60.0552 436.524 58.7039C438.353 57.3343 440.464 56.6493 442.853 56.6493C443.443 56.6493 444.082 56.6863 444.768 56.7605C445.455 56.8344 446.054 56.936 446.575 57.0659V67.5611C446.019 67.3943 445.25 67.2462 444.269 67.1168C443.287 66.9873 442.388 66.9226 441.576 66.9226C439.834 66.9226 438.279 67.3018 436.91 68.0606C435.56 68.8012 434.486 69.8376 433.69 71.1703C432.913 72.5034 432.524 74.0393 432.524 75.7794V99.9073H420.696Z" fill="white"/>
</g>
<defs>
<clipPath id="clip0_542_1402">
<rect width="451.744" height="138.998" fill="white" transform="translate(0.324219 0.00195312)"/>
</clipPath>
</defs>
</svg>
