<svg width="747" height="224" viewBox="0 0 747 224" fill="none" xmlns="http://www.w3.org/2000/svg">
<path d="M219.016 0H4.97699C3.65699 0 2.39099 0.524008 1.45799 1.45801C0.523993 2.39101 0 3.657 0 4.978V219.017C0 220.337 0.523993 221.603 1.45799 222.536C2.39099 223.47 3.65699 223.994 4.97699 223.994H219.016C220.337 223.994 221.603 223.47 222.536 222.536C223.47 221.603 223.994 220.337 223.994 219.017V4.978C223.994 3.657 223.47 2.39101 222.536 1.45801C221.603 0.524008 220.337 0 219.016 0ZM149.329 144.352C149.329 145.672 148.805 146.938 147.871 147.872C146.938 148.805 145.672 149.33 144.352 149.33H79.642C78.322 149.33 77.056 148.805 76.122 147.872C75.189 146.938 74.665 145.672 74.665 144.352V79.642C74.665 78.322 75.189 77.056 76.122 76.123C77.056 75.189 78.322 74.665 79.642 74.665H144.352C145.672 74.665 146.938 75.189 147.871 76.123C148.805 77.056 149.329 78.322 149.329 79.642V144.352Z" fill="white"/>
<path d="M667.132 74.6738H602.423C599.674 74.6738 597.445 76.9018 597.445 79.6508V144.361C597.445 147.11 599.674 149.339 602.423 149.339H667.132C669.881 149.339 672.11 147.11 672.11 144.361V79.6508C672.11 76.9018 669.881 74.6738 667.132 74.6738Z" fill="white"/>
<path d="M592.437 0.00585938H527.728C524.979 0.00585938 522.75 2.23386 522.75 4.98386V69.6928C522.75 72.4418 524.979 74.6708 527.728 74.6708H592.437C595.187 74.6708 597.415 72.4418 597.415 69.6928V4.98386C597.415 2.23386 595.187 0.00585938 592.437 0.00585938Z" fill="white"/>
<path d="M741.766 0.00585938H677.056C674.307 0.00585938 672.078 2.23386 672.078 4.98386V69.6928C672.078 72.4418 674.307 74.6708 677.056 74.6708H741.766C744.515 74.6708 746.743 72.4418 746.743 69.6928V4.98386C746.743 2.23386 744.515 0.00585938 741.766 0.00585938Z" fill="white"/>
<path d="M592.437 149.334H527.728C524.979 149.334 522.75 151.562 522.75 154.311V219.021C522.75 221.77 524.979 223.999 527.728 223.999H592.437C595.187 223.999 597.415 221.77 597.415 219.021V154.311C597.415 151.562 595.187 149.334 592.437 149.334Z" fill="white"/>
<path d="M741.766 149.334H677.056C674.307 149.334 672.078 151.562 672.078 154.311V219.021C672.078 221.77 674.307 223.999 677.056 223.999H741.766C744.515 223.999 746.743 221.77 746.743 219.021V154.311C746.743 151.562 744.515 149.334 741.766 149.334Z" fill="white"/>
<path d="M480.343 0.00585938H415.634C412.885 0.00585938 410.656 2.23386 410.656 4.98386V69.6928C410.656 72.4418 412.885 74.6708 415.634 74.6708H480.343C483.092 74.6708 485.321 72.4418 485.321 69.6928V4.98386C485.321 2.23386 483.092 0.00585938 480.343 0.00585938Z" fill="white"/>
<path d="M480.343 149.334H415.634C412.885 149.334 410.656 151.562 410.656 154.311V219.021C410.656 221.77 412.885 223.999 415.634 223.999H480.343C483.092 223.999 485.321 221.77 485.321 219.021V154.311C485.321 151.562 483.092 149.334 480.343 149.334Z" fill="white"/>
<path d="M410.658 79.586C410.658 78.266 410.133 77 409.2 76.067C408.266 75.133 407 74.609 405.68 74.609H335.993V4.978C335.993 3.657 335.468 2.39101 334.535 1.45801C333.601 0.524008 332.335 0 331.015 0H266.306C264.985 0 263.719 0.524008 262.786 1.45801C261.852 2.39101 261.328 3.657 261.328 4.978V218.905C261.328 220.225 261.852 221.491 262.786 222.424C263.719 223.358 264.985 223.882 266.306 223.882H331.015C332.335 223.882 333.601 223.358 334.535 222.424C335.468 221.491 335.993 220.225 335.993 218.905V149.274H405.68C407 149.274 408.266 148.749 409.2 147.816C410.133 146.882 410.658 145.616 410.658 144.296V79.586Z" fill="white"/>
</svg>
