<svg width="162" height="23" viewBox="0 0 162 23" fill="none" xmlns="http://www.w3.org/2000/svg">
<g clip-path="url(#clip0_561_13)">
<path d="M151.512 18.5444V7.93601H154.094V9.22677H154.24C154.677 8.44022 155.76 7.67383 157.322 7.67383C159.78 7.67383 161.279 9.34778 161.279 11.6066V18.5444H158.572V12.2923C158.572 11.0016 157.718 10.1343 156.468 10.1343C155.156 10.1343 154.219 11.1427 154.219 12.4738V18.5444H151.512Z" fill="white"/>
<path d="M148.76 6.99265C147.781 6.99265 147.094 6.40778 147.094 5.45987C147.094 4.55231 147.781 3.94727 148.76 3.94727C149.739 3.94727 150.426 4.55231 150.426 5.45987C150.426 6.40778 149.739 6.99265 148.76 6.99265ZM147.406 18.5449V7.93643H150.113V18.5449H147.406Z" fill="white"/>
<path d="M136.585 18.8066C133.357 18.8066 131.066 16.4671 131.066 13.3007C131.066 9.95282 133.378 7.67383 136.585 7.67383C140.105 7.67383 142.021 10.1948 142.021 13.1797V14.0066H133.69C133.774 15.6201 134.919 16.7091 136.669 16.7091C138.001 16.7091 139.022 16.1041 139.397 15.2369H141.917C141.375 17.3949 139.418 18.8066 136.585 18.8066ZM133.732 12.1511H139.438C139.313 10.7192 138.168 9.77131 136.585 9.77131C135.065 9.77131 133.899 10.8201 133.732 12.1511Z" fill="white"/>
<path d="M118.422 22.498V7.93601H121.088V9.28728H121.233C121.525 8.84358 122.525 7.67383 124.524 7.67383C127.585 7.67383 129.689 9.89232 129.689 13.1999C129.689 16.5075 127.606 18.8066 124.607 18.8066C122.67 18.8066 121.629 17.7579 121.275 17.173H121.129V22.498H118.422ZM124.003 16.4268C125.753 16.4268 126.94 15.1159 126.94 13.2402C126.94 11.3041 125.753 10.0537 123.982 10.0537C122.191 10.0537 121.067 11.4453 121.067 13.2402C121.067 15.2167 122.316 16.4268 124.003 16.4268Z" fill="white"/>
<path d="M98.9602 18.8066C95.7322 18.8066 93.4414 16.4671 93.4414 13.3007C93.4414 9.95282 95.7531 7.67383 98.9602 7.67383C102.48 7.67383 104.396 10.1948 104.396 13.1797V14.0066H96.0654C96.1487 15.6201 97.2942 16.7091 99.0435 16.7091C100.376 16.7091 101.397 16.1041 101.772 15.2369H104.292C103.75 17.3949 101.793 18.8066 98.9602 18.8066ZM96.1071 12.1511H101.813C101.688 10.7192 100.543 9.77131 98.9602 9.77131C97.44 9.77131 96.2737 10.8201 96.1071 12.1511Z" fill="white"/>
<path d="M80.9883 18.5429V16.0613L88.5689 6.48946V6.34348H81.259V3.94531H92.026V6.40604L84.4454 15.9779V16.1447H92.0676V18.5429H80.9883Z" fill="white"/>
<path d="M69.8398 18.5444V7.93601H72.4223V9.22677H72.568C73.0054 8.44022 74.0883 7.67383 75.6503 7.67383C78.1077 7.67383 79.6072 9.34778 79.6072 11.6066V18.5444H76.8998V12.2923C76.8998 11.0016 76.046 10.1343 74.7964 10.1343C73.4844 10.1343 72.5472 11.1427 72.5472 12.4738V18.5444H69.8398Z" fill="white"/>
<path d="M63.0267 18.8066C59.7987 18.8066 57.5078 16.4671 57.5078 13.3007C57.5078 9.95282 59.8195 7.67383 63.0267 7.67383C66.5462 7.67383 68.4622 10.1948 68.4622 13.1797V14.0066H60.1319C60.2152 15.6201 61.3606 16.7091 63.11 16.7091C64.4428 16.7091 65.4633 16.1041 65.8382 15.2369H68.3581C67.8166 17.3949 65.859 18.8066 63.0267 18.8066ZM60.1735 12.1511H65.8798C65.7549 10.7192 64.6094 9.77131 63.0267 9.77131C61.5064 9.77131 60.3401 10.8201 60.1735 12.1511Z" fill="white"/>
<path d="M44.8672 22.4828V7.89897H47.5329V9.28728H47.6787C47.9702 8.84358 48.9699 7.67383 50.9692 7.67383C54.0306 7.67383 56.134 9.89232 56.134 13.1999C56.134 16.5075 54.0514 18.8066 51.0525 18.8066C49.1157 18.8066 48.0744 17.7579 47.7203 17.173H47.5746V22.4828H44.8672ZM50.4485 16.4268C52.1979 16.4268 53.385 15.1159 53.385 13.2402C53.385 11.3041 52.1979 10.0537 50.4277 10.0537C48.6367 10.0537 47.5121 11.4453 47.5121 13.2402C47.5121 15.2167 48.7616 16.4268 50.4485 16.4268Z" fill="white"/>
<path d="M35.5084 18.8062C30.9331 18.8062 27.5664 15.5667 27.5664 11.2195C27.5664 6.91411 30.9547 3.63281 35.53 3.63281C40.1053 3.63281 43.4936 6.95591 43.4936 11.2195C43.4936 15.5249 40.0837 18.8062 35.5084 18.8062ZM35.53 16.1519C38.4219 16.1519 40.4938 14.0619 40.4938 11.2195C40.4938 8.4189 38.4219 6.28711 35.53 6.28711C32.6165 6.28711 30.5446 8.4189 30.5446 11.2195C30.5446 14.0619 32.6165 16.1519 35.53 16.1519Z" fill="white"/>
<path d="M146.025 3.88477H143.398V18.5442H146.025V3.88477Z" fill="white"/>
<path d="M105.773 22.498V7.93601H108.439V9.28728H108.585C108.876 8.84358 109.876 7.67383 111.875 7.67383C114.937 7.67383 117.04 9.89232 117.04 13.1999C117.04 16.5075 114.958 18.8066 111.959 18.8066C110.022 18.8066 108.981 17.7579 108.627 17.173H108.481V22.498H105.773ZM111.355 16.4268C113.104 16.4268 114.291 15.1159 114.291 13.2402C114.291 11.3041 113.104 10.0537 111.334 10.0537C109.543 10.0537 108.418 11.4453 108.418 13.2402C108.418 15.2167 109.668 16.4268 111.355 16.4268Z" fill="white"/>
<path d="M0.886719 22.5181C3.46835 18.1925 5.66205 14.6251 8.45028 9.73566C9.43516 8.08576 11.137 7.06055 13.2379 7.06055H16.539L7.32023 22.5181H0.886719Z" fill="white"/>
<path d="M0.917969 0H20.7262L17.3416 5.7148H0.917969V0Z" fill="white"/>
<path d="M10.836 18.959C11.5809 17.6838 12.7783 16.8916 14.4553 16.8916L20.726 16.875V22.5186H8.71094C9.46318 21.2692 10.1163 20.1911 10.836 18.959Z" fill="white"/>
</g>
<defs>
<clipPath id="clip0_561_13">
<rect width="162" height="23" fill="white"/>
</clipPath>
</defs>
</svg>
