<svg width="547" height="143" viewBox="0 0 547 143" fill="none" xmlns="http://www.w3.org/2000/svg">
<path d="M232.887 48.7995C232.887 52.6176 235.755 55.3222 240.057 55.3222C244.36 55.3222 247.148 52.6176 247.148 48.7995C247.148 44.9018 244.36 42.3564 240.057 42.3564C235.755 42.3564 232.887 44.9018 232.887 48.7995Z" fill="white"/>
<path d="M234.312 59.5381V99.3105H245.786V59.5381H234.312Z" fill="white"/>
<path d="M201.501 99.3092H190.027V43.6279H201.501V65.9004C203.333 62.0822 207.476 58.3436 213.372 58.3436C223.013 58.3436 227.396 64.5481 227.396 75.3662V99.3092H215.922V76.6389C215.922 70.9117 213.372 67.9686 208.99 67.9686C204.05 67.9686 201.501 71.9458 201.501 77.673V99.3092Z" fill="white"/>
<path d="M168.372 99.3092H156.898V59.5368H168.372L166.351 68.6621C166.231 69.2046 166.644 69.7185 167.199 69.7185C167.605 69.7185 167.955 69.4365 168.062 69.045C169.771 62.7601 174.933 58.9004 180.243 58.9004C182.315 58.9004 183.59 59.0595 184.466 59.2186V69.798C183.669 69.7185 181.04 69.5594 179.526 69.5594C174.506 69.5594 168.372 71.8662 168.372 84.4343V99.3092Z" fill="white"/>
<path d="M265.29 99.3103H253.816V59.5379H265.29L265.131 66.2197C266.963 62.322 271.265 58.3447 277.161 58.3447C286.802 58.3447 291.185 64.5492 291.185 75.3673V99.3103H279.711V76.64C279.711 70.9128 277.161 67.9696 272.779 67.9696C267.84 67.9696 265.29 71.9469 265.29 77.6741V99.3103Z" fill="white"/>
<path fill-rule="evenodd" clip-rule="evenodd" d="M297.152 79.5031C297.152 91.6735 304.721 100.583 317.39 100.583C328.624 100.583 334.6 94.4576 336.353 87.6962L325.676 85.7076C324.959 88.4917 322.171 91.8326 317.31 91.8326C312.29 91.8326 308.147 87.3781 308.068 82.0486H336.432C336.671 81.094 336.831 79.7418 336.831 77.9122C336.831 66.3782 328.226 58.2646 317.469 58.2646C306.235 58.2646 297.152 67.2532 297.152 79.5031ZM325.676 75.2077H308.466C308.705 70.2759 312.769 66.7759 317.31 66.7759C321.772 66.7759 325.835 70.1168 325.676 75.2077Z" fill="white"/>
<path d="M359.542 100.583C350.539 100.583 342.174 97.4803 340.5 88.2531L351.177 86.6622C352.451 90.7985 355.32 92.5485 359.383 92.5485C363.128 92.5485 365.12 90.7985 365.12 88.4917C365.12 86.5031 363.606 85.1508 359.542 84.3554L355.798 83.5599C347.671 81.8895 342.572 78.1509 342.572 71.5486C342.572 63.6737 349.424 58.2646 359.383 58.2646C368.785 58.2646 375.717 62.6396 376.673 70.8327L366.156 72.4236C365.678 68.5259 362.969 66.2987 359.383 66.2987C355.718 66.2987 353.806 68.2873 353.806 70.5941C353.806 72.4236 355.081 73.6963 358.507 74.4122L362.251 75.1282C371.733 77.0372 376.673 80.8554 376.673 88.1735C376.673 95.7303 369.024 100.583 359.542 100.583Z" fill="white"/>
<path fill-rule="evenodd" clip-rule="evenodd" d="M414.293 79.4236C414.293 90.878 422.34 100.583 435.009 100.583C447.677 100.583 455.802 90.878 455.802 79.4236C455.802 67.8896 447.677 58.2646 435.009 58.2646C422.34 58.2646 414.293 67.8896 414.293 79.4236ZM444.251 79.4236C444.251 86.7417 439.869 90.2417 435.009 90.2417C430.228 90.2417 425.846 86.7417 425.846 79.4236C425.846 72.185 430.228 68.5259 435.009 68.5259C439.869 68.5259 444.251 72.1055 444.251 79.4236Z" fill="white"/>
<path d="M473.699 99.3103H462.223V59.5379H473.699L473.538 66.2197C475.37 62.322 479.673 58.3447 485.568 58.3447C495.211 58.3447 499.591 64.5492 499.591 75.3673V99.3103H488.119V76.64C488.119 70.9128 485.568 67.9696 481.188 67.9696C476.246 67.9696 473.699 71.9469 473.699 77.6741V99.3103Z" fill="white"/>
<path fill-rule="evenodd" clip-rule="evenodd" d="M505.566 79.5031C505.566 91.6735 513.132 100.583 525.801 100.583C537.036 100.583 543.011 94.4576 544.767 87.6962L534.091 85.7076C533.371 88.4917 530.583 91.8326 525.725 91.8326C520.702 91.8326 516.56 87.3781 516.479 82.0486H544.847C545.084 81.094 545.245 79.7418 545.245 77.9122C545.245 66.3782 536.638 58.2646 525.882 58.2646C514.647 58.2646 505.566 67.2532 505.566 79.5031ZM534.091 75.2077H516.877C517.118 70.2759 521.18 66.7759 525.725 66.7759C530.185 66.7759 534.247 70.1168 534.091 75.2077Z" fill="white"/>
<path d="M399.375 82.2042V68.8786H410.757V59.4669H399.375V47.6826H387.968V59.4669H379.703V68.8786H387.968V81.5289C387.968 81.592 387.968 81.6572 387.968 81.7247C387.968 82.0035 387.968 82.6555 387.968 82.6555C387.968 83.7459 387.908 85.0763 388.075 86.3128C388.358 88.4163 389.183 91.8211 392.118 94.7522C395.054 97.6833 398.465 98.5064 400.572 98.7893C402.206 99.0087 404.024 99.0056 405.177 99.0038L410.059 99.0132V88.3229H405.447C402.557 88.3229 401.113 88.3229 400.215 87.4269C399.37 86.5836 399.372 85.2564 399.375 82.6984C399.375 82.5385 399.375 82.374 399.375 82.2042Z" fill="white"/>
<path opacity="0.23" fill-rule="evenodd" clip-rule="evenodd" d="M92.1173 122.231C87.123 126.12 81.4261 129.301 74.2993 129.732C73.0167 129.81 71.7306 129.81 70.448 129.732C63.3212 129.301 57.6243 126.12 52.63 122.231C47.9914 118.62 42.8995 113.527 37.1063 107.733C36.9458 107.572 36.7846 107.412 36.623 107.25C36.4613 107.088 36.3002 106.927 36.1396 106.766C30.3456 100.973 25.253 95.8815 21.6414 91.2429C17.753 86.2486 14.5713 80.5517 14.1402 73.4249C14.0626 72.1423 14.0626 70.8562 14.1402 69.5737C14.5713 62.4468 17.753 56.75 21.6414 51.7556C25.253 47.117 30.3456 42.0253 36.1396 36.2321C36.3002 36.0716 36.4613 35.9105 36.623 35.7488C36.7846 35.5872 36.9458 35.426 37.1063 35.2655C42.8995 29.4715 47.9914 24.3789 52.63 20.7674C57.6243 16.879 63.3212 13.6973 70.448 13.2662C71.7306 13.1886 73.0167 13.1886 74.2993 13.2662C81.4261 13.6973 87.123 16.879 92.1173 20.7674C96.7559 24.3789 101.848 29.4715 107.641 35.2655C107.801 35.4261 107.963 35.5872 108.124 35.7488C108.286 35.9105 108.447 36.0716 108.608 36.2321C114.401 42.0253 119.494 47.117 123.106 51.7556C126.994 56.75 130.176 62.4468 130.607 69.5737C130.684 70.8562 130.684 72.1423 130.607 73.4249C130.176 80.5517 126.994 86.2486 123.106 91.2429C119.494 95.8815 114.401 100.973 108.608 106.766C108.447 106.927 108.286 107.088 108.124 107.25C107.963 107.412 107.801 107.572 107.641 107.733C101.848 113.527 96.7559 118.62 92.1173 122.231ZM25.7864 72.7201C26.2495 80.3761 32.4574 86.5837 44.8731 98.9994C57.2887 111.415 63.4968 117.623 71.1528 118.086C71.9661 118.135 72.7816 118.135 73.5945 118.086C81.2505 117.623 87.4586 111.415 99.8743 98.9994C112.29 86.5837 118.498 80.3761 118.961 72.7201C119.01 71.9068 119.01 71.0917 118.961 70.2784C118.498 62.6224 112.29 56.4148 99.8743 43.9989C87.4586 31.5833 81.2505 25.3754 73.5945 24.9123C72.7816 24.8631 71.9661 24.8631 71.1528 24.9123C63.4968 25.3754 57.2887 31.5833 44.8731 43.9989C32.4574 56.4148 26.2495 62.6224 25.7864 70.2784C25.7372 71.0917 25.7372 71.9068 25.7864 72.7201Z" fill="white"/>
<path d="M41.2695 71.5019C41.2695 70.231 42.1688 69.1437 43.4049 68.8479C49.6746 67.3486 54.6117 65.002 58.757 61.3296C59.977 60.249 61.1299 59.0956 62.2109 57.8761C65.8829 53.7308 68.2295 48.7937 69.7292 42.524C70.0246 41.2879 71.1119 40.3887 72.3828 40.3887C73.6538 40.3887 74.741 41.2879 75.0364 42.524C76.5361 48.7937 78.8823 53.7308 82.5547 57.8761C83.6353 59.0956 84.7887 60.249 86.0087 61.3296C90.1539 65.002 95.0911 67.3486 101.361 68.8479C102.597 69.1437 103.496 70.231 103.496 71.5019C103.496 72.7729 102.597 73.8597 101.361 74.1555C95.0911 75.6548 90.1539 78.0014 86.0087 81.6738C84.7887 82.7544 83.6353 83.9078 82.5547 85.1273C78.8827 89.2726 76.5361 94.2097 75.0364 100.479C74.741 101.716 73.6538 102.615 72.3828 102.615C71.1119 102.615 70.0246 101.716 69.7292 100.479C68.2295 94.2097 65.8829 89.2726 62.2109 85.1273C61.1299 83.9078 59.977 82.7544 58.757 81.6738C54.6117 78.0014 49.6746 75.6548 43.4049 74.1555C42.1688 73.8597 41.2695 72.7729 41.2695 71.5019Z" fill="white"/>
</svg>
