<svg width="140" height="30" viewBox="0 0 140 30" fill="none" xmlns="http://www.w3.org/2000/svg">
<g clip-path="url(#clip0_562_30)">
<mask id="mask0_562_30" style="mask-type:luminance" maskUnits="userSpaceOnUse" x="0" y="0" width="140" height="30">
<path d="M139.451 0H0V30H139.451V0Z" fill="white"/>
</mask>
<g mask="url(#mask0_562_30)">
<path d="M28.1916 17.397H29.8054C30.2162 20.5519 32.2987 23.532 35.9658 23.532C37.8436 23.532 39.3393 22.5094 39.3393 20.6103C39.3393 15.7608 28.1916 18.7404 28.1916 10.6776C28.1916 7.17296 30.891 4.54333 34.9974 4.54333C37.5796 4.54333 38.8111 5.65367 39.6913 5.65367C40.1022 5.65367 40.5708 5.50761 40.5708 4.68949H42.126V12.4308H40.5122C40.5122 8.69161 38.2243 6.58798 35.4081 6.58798C33.3542 6.58798 31.8578 7.61059 31.8578 9.21762C31.8578 14.0671 43.0062 11.0875 43.0062 19.1502C43.0062 22.9478 40.3067 25.5767 36.2583 25.5767C33.0901 25.5767 31.8578 24.2327 30.6547 24.2327C30.0972 24.2327 29.7458 24.6125 29.7458 25.4306H28.1914L28.1916 17.397ZM54.8999 22.6555C54.1084 24.3209 52.5826 25.5773 50.3534 25.5773C48.9743 25.5773 47.7127 25.1391 46.8324 24.2041C46.0116 23.3568 45.5127 22.1596 45.5127 20.2312V14.7681C45.5127 13.7455 45.3367 13.3657 45.0425 13.0734C44.7498 12.7812 44.3384 12.5768 43.4588 12.5768H43.3121V10.6776H49.6199V19.8506C49.6199 20.9317 49.8839 21.5453 50.2654 21.9251C50.7348 22.3926 51.2622 22.5094 51.8197 22.5094C52.5533 22.5094 53.2575 22.1588 53.7269 21.5745C54.2265 20.9317 54.4605 20.026 54.4605 18.3027V14.7681C54.4605 13.7455 54.2845 13.3657 53.991 13.0734C53.6976 12.7812 53.2868 12.5768 52.4066 12.5768H52.2606V10.6776H58.5683V21.1939C58.5683 22.2166 58.7437 22.5964 59.0378 22.8885C59.3305 23.1807 59.742 23.3852 60.7682 23.3852H61.0616V25.2845H54.9006L54.8999 22.6555ZM73.8275 18.5855C73.9742 22.2677 72.1976 25.1785 68.3985 25.5094C64.1316 25.8812 61.2465 22.8776 60.8915 18.8323C60.5233 14.6418 62.8903 10.7404 67.2154 10.3635C70.927 10.0399 72.9832 12.324 73.1768 14.5358C73.292 15.8455 72.7969 16.9149 71.3936 17.037C70.4877 17.1158 69.5304 16.6125 69.4233 15.3905C69.372 14.8083 69.4674 14.2138 69.4263 13.7477C69.3419 12.7871 68.5496 12.1531 67.4105 12.2517C65.3353 12.4329 64.0252 14.2765 64.2709 17.0705C64.4909 19.5731 65.8707 22.2093 68.9392 21.9419C70.8391 21.7761 71.8924 20.3656 72.2196 18.7236L73.8275 18.5833V18.5855ZM87.4788 18.5818C87.6255 22.264 85.8488 25.1748 82.0498 25.5057C77.7828 25.8775 74.8977 22.8739 74.5427 18.8288C74.1744 14.6381 76.5416 10.7368 80.8666 10.3599C84.5783 10.0363 86.6344 12.3204 86.8281 14.5322C86.9433 15.8419 86.4481 16.9113 85.0448 17.0333C84.139 17.1122 83.1816 16.6088 83.0745 15.3869C83.0232 14.8046 83.1185 14.2101 83.0774 13.7441C82.9931 12.7835 82.2009 12.1495 81.0617 12.2481C78.9865 12.4293 77.6764 14.2729 77.9222 17.0668C78.1422 19.5694 79.522 22.2056 82.5905 21.9382C84.4902 21.7724 85.5437 20.3619 85.8708 18.7199L87.4788 18.5796V18.5818ZM127.321 19.1421C127.145 22.8228 125.12 25.5686 121.306 25.5686C117.023 25.5686 114.413 22.3261 114.413 18.2656C114.413 14.0589 117.112 10.3781 121.454 10.3781C125.179 10.3781 127.028 12.8317 127.028 15.0523C127.028 16.3671 126.441 17.389 125.033 17.389C124.124 17.389 123.214 16.8046 123.214 15.5782C123.214 14.9938 123.361 14.4095 123.361 13.942C123.361 12.9779 122.628 12.2773 121.483 12.2773C119.4 12.2773 117.934 14.0005 117.934 16.8054C117.934 19.3174 119.078 22.0639 122.158 22.0639C124.065 22.0639 125.238 20.7498 125.708 19.1428L127.321 19.1421ZM92.3399 4.39062C90.9021 4.39062 89.7872 5.53018 89.7872 6.96184C89.7872 8.3935 90.9021 9.50385 92.3399 9.50385C93.7704 9.50385 94.9147 8.3935 94.9147 6.96184C94.9147 5.53018 93.7704 4.39062 92.3399 4.39062ZM114.5 23.3824C113.62 23.3824 113.209 23.1851 112.916 22.8929C112.622 22.6008 112.446 22.2209 112.446 21.1983V15.7345C112.446 13.8061 112.006 12.5497 111.184 11.7024C110.304 10.7674 108.984 10.3876 107.751 10.3876C105.228 10.3876 103.702 11.644 102.91 13.3093V10.6797H96.7486V12.5788H97.042C98.0689 12.5788 98.4797 12.7833 98.7732 13.0755C99.0666 13.3677 99.2426 13.7476 99.2426 14.7702V21.1982C99.2426 22.2208 99.0666 22.6007 98.7732 22.8928C98.4797 23.185 98.0689 23.3823 97.042 23.3823H96.6752C95.6483 23.3823 95.2374 23.185 94.944 22.8928C94.6579 22.6007 94.4746 22.2208 94.4746 21.1982V10.6797H87.88V12.5788H88.1734C89.2004 12.5788 89.6112 12.7833 89.9046 13.0755C90.198 13.3677 90.3741 13.7476 90.3741 14.7702V21.1982C90.3741 22.2208 90.198 22.6007 89.9046 22.8928C89.6112 23.185 89.2004 23.3823 88.1734 23.3823H87.88V25.2814H104.964V23.3823H104.817C104.524 23.3823 104.054 23.2945 103.761 23.0024C103.468 22.7102 103.35 22.2208 103.35 21.1982V17.6628C103.35 15.9389 103.585 15.0624 104.084 14.4197C104.553 13.8353 105.257 13.4555 106.226 13.4555C106.695 13.4555 107.253 13.5431 107.722 14.0106C108.103 14.3904 108.338 15.0332 108.338 16.1142V21.1982C108.338 22.2208 108.221 22.7102 107.927 23.0024C107.634 23.2945 107.165 23.3823 106.871 23.3823H106.724V25.2814H114.647V23.3823L114.5 23.3824ZM139.449 23.0938C138.629 24.4963 136.956 25.5766 135.019 25.5766C133.846 25.5766 132.761 25.2553 131.969 24.5248C131.176 23.7943 130.766 22.684 130.766 20.7271V14.5337C130.766 13.6279 130.619 13.3941 130.444 13.2188C130.238 13.0144 130.003 12.8682 129.094 12.8682H127.685V11.2612C131.499 10.5892 132.878 8.95297 133.26 5.85662H134.873V10.6768H139.127V12.8682H136.545C135.636 12.8682 135.401 13.0143 135.195 13.2188C135.019 13.3941 134.873 13.6279 134.873 14.5337V20.7849C134.873 21.5445 135.078 22.012 135.46 22.3042C135.782 22.5379 136.164 22.6541 136.663 22.6541C137.368 22.6541 137.925 22.3326 138.393 21.9236L139.449 23.0923V23.0938Z" fill="white"/>
<path d="M20.7828 3.00065V9.00087L15.587 12.0004V6.00022L10.3911 8.99978V15L5.19531 12.0004V6.00022L15.587 0L20.7828 3.00065Z" fill="white"/>
<path opacity="0.4" d="M10.3917 14.9996L5.19583 17.9991L0 14.9996L5.19583 12L10.3917 14.9996Z" fill="white"/>
<path d="M15.5875 17.9996V23.9998L5.19583 30L0 26.9993V20.9991L5.19583 17.9996V23.9998L10.3917 21.0002V15L15.5875 17.9996Z" fill="white"/>
<path opacity="0.4" d="M20.7823 14.9996L15.5865 17.9991L10.3906 14.9996L15.5865 12L20.7823 14.9996Z" fill="white"/>
</g>
</g>
<defs>
<clipPath id="clip0_562_30">
<rect width="140" height="30" fill="white"/>
</clipPath>
</defs>
</svg>
